<?xml version="1.0" encoding="UTF-8"?><svg xmlns="http://www.w3.org/2000/svg" width="24px" height="24px" fill="none" stroke-width="1" viewBox="0 0 24 24" color="#ffffff"><path stroke="#ffffff" stroke-width="1" d="M7 19v-8a2 2 0 0 1 2-2h11a2 2 0 0 1 2 2v8a2 2 0 0 1-2 2H9a2 2 0 0 1-2-2Z"></path><path stroke="#ffffff" stroke-width="1" d="M6.5 16H4a2 2 0 0 1-2-2V6a2 2 0 0 1 2-2h11a2 2 0 0 1 2 2v3"></path><path stroke="#ffffff" stroke-width="1" stroke-linecap="round" stroke-linejoin="round" d="M10 12h1M5 7h1"></path></svg>