<?xml version="1.0" encoding="UTF-8"?><svg xmlns="http://www.w3.org/2000/svg" width="24px" height="24px" fill="none" stroke-width="1" viewBox="0 0 24 24" color="#ffffff"><path stroke="#ffffff" stroke-width="1" stroke-linecap="round" stroke-linejoin="round" d="M12 11h5M12 7h5M8 15V3.6a.6.6 0 0 1 .6-.6h11.8a.6.6 0 0 1 .6.6V17a4 4 0 0 1-4 4v0"></path><path stroke="#ffffff" stroke-width="1" stroke-linecap="round" stroke-linejoin="round" d="M5 15h7.4c.331 0 .603.267.63.597C13.153 17.115 13.78 21 17 21H6a3 3 0 0 1-3-3v-1a2 2 0 0 1 2-2Z"></path></svg>