<?xml version="1.0" encoding="UTF-8"?><svg xmlns="http://www.w3.org/2000/svg" width="24px" height="24px" fill="none" stroke-width="1.5" viewBox="0 0 24 24" color="#000000"><path stroke="#000000" stroke-width="1.5" stroke-linecap="round" stroke-linejoin="round" d="M13 21H3.6a.6.6 0 0 1-.6-.6V3.6a.6.6 0 0 1 .6-.6h16.8a.6.6 0 0 1 .6.6V13M16 19h3m3 0h-3m0 0v-3m0 3v3"></path><path stroke="#000000" stroke-width="1.5" stroke-linecap="round" stroke-linejoin="round" d="M9.898 8.513a.6.6 0 0 0-.898.52v5.933a.6.6 0 0 0 .898.521l5.19-2.966a.6.6 0 0 0 0-1.042l-5.19-2.966Z"></path></svg>