<?xml version="1.0" encoding="UTF-8"?><svg xmlns="http://www.w3.org/2000/svg" width="24px" height="24px" fill="none" stroke-width="1.5" viewBox="0 0 24 24" color="#000000"><path stroke="#000000" stroke-width="1.5" stroke-linecap="round" stroke-linejoin="round" d="M2 12h3m3 0H5m0 0V9m0 3v3M6.25 6l.245-.28a2 2 0 0 1 3.01 0l4.343 4.963a2 2 0 0 1 0 2.634L9.505 18.28a2 2 0 0 1-3.01 0L6.25 18"></path><path stroke="#000000" stroke-width="1.5" stroke-linecap="round" stroke-linejoin="round" d="m13 19 4.884-5.698a2 2 0 0 0 0-2.604L13 5"></path><path stroke="#000000" stroke-width="1.5" stroke-linecap="round" stroke-linejoin="round" d="m17 19 4.884-5.698a2 2 0 0 0 0-2.604L17 5"></path></svg>