<?xml version="1.0" encoding="UTF-8"?>
<svg id="Layer_2" data-name="Layer 2" xmlns="http://www.w3.org/2000/svg" viewBox="0 0 258.86 258.89">
  <defs>
    <style>
      .cls-1 {
        fill: #fff;
      }
    </style>
  </defs>
  <g id="Layer_2-2" data-name="Layer 2">
    <path class="cls-1" d="M258.86,148.29c-.3,61.49-49.75,110.73-111.07,110.59-61.48-.14-111.29-50.24-110.81-111.46,.48-61.31,50.51-110.89,111.42-110.43,61.46,.46,110.76,50.13,110.46,111.3Zm-198.28,27.28c3.02,34.13,50.58,67.29,93.51,64.62,49.99-3.11,86.64-45.09,86.35-92.77-.24-39.51-34.3-85.48-64.88-86.73,0,1.83,0,3.65,0,5.47,0,32.64,0,65.28,0,97.92,0,8.81-2.73,11.49-11.68,11.5-32.64,0-65.28,0-97.92,0h-5.37Zm96.63-32.42c0-9.37,.05-18.13-.07-26.89-.01-1-.76-2.19-1.52-2.95-15.38-15.46-30.79-30.89-46.26-46.25-.79-.78-2.63-1.6-3.3-1.22-5.53,3.17-10.9,6.62-16.25,9.94,22.72,22.71,44.7,44.69,67.39,67.37Zm-15.09,14.06c-22.21-22.28-44.24-44.39-66.7-66.93-2.93,4.74-6.22,9.72-9.05,14.94-.56,1.03,.13,3.5,1.08,4.47,14.96,15.18,30.04,30.23,45.16,45.26,.99,.99,2.43,2.14,3.68,2.17,8.76,.19,17.52,.1,25.83,.1Zm-85.07-30.18c-.51,9.54-1.07,18.36-1.35,27.19-.03,.97,1.52,2.83,2.37,2.85,9.71,.2,19.42,.13,28.76,.13-9.65-9.78-19.21-19.46-29.79-30.17Zm100.18-39.94c0-9.63,.09-19.07-.13-28.49-.02-1.03-1.89-2.9-2.86-2.87-8.84,.24-17.67,.82-27.32,1.35,10.7,10.6,20.3,20.11,30.3,30.02Z"/>
    <path class="cls-1" d="M18.53,18.54c0,3.54,.11,6.35-.02,9.14-.25,5.34-4.13,9.21-9.14,9.28-5.12,.07-9.03-3.55-9.21-9.05-.21-6.3-.21-12.62,.01-18.93C.36,3.62,3.61,.37,9,.18c6.3-.23,12.62-.22,18.92,0,5.48,.19,9.1,4.11,9.02,9.23-.08,4.99-3.96,8.87-9.3,9.11-2.79,.13-5.59,.02-9.12,.02Z"/>
    <path class="cls-1" d="M157.48,28.08c-.16-2.99-.31-5.91-.5-9.53-2.93,0-5.7,.07-8.47-.02-5.64-.18-9.81-4.11-9.87-9.19-.06-5.06,4.01-9.07,9.74-9.22,5.99-.16,11.99-.18,17.98,.03,5.96,.2,9.1,3.54,9.18,9.49,.09,6.81,.02,13.62,.02,21.04-6.19-.89-11.97-1.73-18.07-2.61Z"/>
    <path class="cls-1" d="M18.51,156.97c3.5,.19,6.43,.35,9.5,.52,.9,5.88,1.77,11.58,2.74,17.91-8.15,0-16.07,.4-23.91-.17-3.91-.28-6.45-3.57-6.58-7.68-.22-6.82-.27-13.65,0-20.47,.18-4.71,4.38-8.36,8.9-8.42,4.7-.06,8.93,3.75,9.31,8.69,.24,3.1,.04,6.23,.04,9.63Z"/>
    <path class="cls-1" d="M111.1,18.54c-2.99,0-5.98,.09-8.96-.01-5.63-.19-9.7-4.12-9.71-9.25-.02-4.95,3.79-8.93,9.21-9.11,6.3-.2,12.61-.21,18.91,.02,5.2,.19,8.8,3.98,8.94,8.83,.13,4.95-3.72,9.16-8.93,9.48-3.14,.19-6.3,.04-9.45,.04Z"/>
    <path class="cls-1" d="M64.87,18.54c-3.15,0-6.31,.13-9.45-.03-5.35-.27-9.03-4.14-9.02-9.27,0-5.1,3.27-8.82,8.58-9.02,6.62-.25,13.27-.23,19.89,.03,4.66,.19,8.4,4.35,8.54,8.8,.14,4.49-3.83,8.86-8.59,9.45-.33,.04-.66,.04-.99,.04-2.99,0-5.97,0-8.96,0Z"/>
    <path class="cls-1" d="M.16,64.81c0-3.32-.19-6.64,.04-9.95,.35-5.07,3.79-8.3,8.65-8.46,4.94-.17,9.32,3.21,9.56,8.14,.33,6.78,.32,13.61,0,20.39-.23,4.76-5.02,8.69-9.48,8.48-4.45-.21-8.4-3.97-8.72-8.65-.23-3.3-.04-6.63-.05-9.94Z"/>
    <path class="cls-1" d="M18.53,110.66c0,3.15,.11,6.31-.02,9.46-.23,5.35-4.07,9.24-9.06,9.37-5.02,.13-9.1-3.59-9.28-8.99-.22-6.46-.22-12.94,.04-19.4,.2-5.02,4.35-8.7,9.11-8.66,4.71,.04,8.81,3.84,9.15,8.77,.22,3.14,.04,6.3,.04,9.45,0,0,.01,0,.02,0Z"/>
  </g>
</svg>