<?xml version="1.0" encoding="UTF-8"?>
<svg id="Layer_2" data-name="Layer 2" xmlns="http://www.w3.org/2000/svg" viewBox="0 0 1657.72 263.1">
  <defs>
    <style>
      .cls-1 {
        fill: #fff;
      }

      .cls-2 {
        fill: #fdfdfe;
      }

      .cls-3 {
        fill: #0e1122;
      }
    </style>
  </defs>
  <g id="Layer_3" data-name="Layer 3">
    <g>
      <path class="cls-2" d="M40,49.86c-.49,.68-.92,1.33-1.4,1.94-3.82,4.97-8.75,8.68-13.84,12.21-.85,.59-1.08-.08-1.45-.45-5.99-6.02-11.96-12.06-17.94-18.09-1.63-1.64-3.23-3.31-4.89-4.92-.52-.51-.7-.8-.07-1.42C10.58,29.16,20.73,19.16,30.89,9.16c1.07-1.05,2.37-1.69,3.79-2.1C42.65,4.76,50.63,2.47,58.58,.12c1.03-.31,1.21,0,1.5,.89,9.59,30.05,41.82,31.08,57.28,19.31,6.57-5,10.89-11.53,13.33-19.35,.3-.96,.56-1.12,1.53-.84,7.91,2.34,15.84,4.62,23.76,6.9,1.62,.47,3.02,1.26,4.23,2.45,10.01,9.87,20.03,19.74,30.08,29.58,.64,.62,.6,.9,0,1.51-7.63,7.65-15.23,15.33-22.81,23.03-.66,.67-1.08,.7-1.84,.17-4.91-3.46-9.7-7.05-13.39-11.87-.5-.66-.97-1.34-1.57-2.17,.75,11.49,.04,22.63-2.89,33.58-2.84,10.62-7.97,19.84-16.09,27.41-6.35,5.93-12.99,11.52-19.54,17.21-1.89,1.64-3.72,3.35-5.41,5.19-1.09,1.18-2.08,2.44-2.88,3.84-2.32,4.06-1.82,7.92,1.52,11.2,6.43,6.32,13.04,12.44,19.84,18.36,3.99,3.48,7.7,7.22,11.19,11.22,8.26,9.47,12.55,20.56,13.64,33,.61,6.97,.65,13.95,.43,20.93-.11,3.25-.34,6.49-.39,9.74-.02,1.12-.35,1.38-1.45,1.38-12.65-.04-25.29-.03-37.94-.03-22.79,0-45.58-.01-68.38,.03-1.32,0-1.59-.38-1.65-1.62-.35-8.49-.56-16.96-.33-25.47,.47-17.69,7.15-32.45,20.1-44.46,7.68-7.12,15.67-13.9,23.11-21.29,.74-.73,1.5-1.43,2.22-2.18,2.7-2.83,3.28-6.39,1.6-9.92-1.29-2.68-3.29-4.82-5.4-6.85-4.11-3.97-8.59-7.51-12.91-11.25-3.75-3.24-7.36-6.63-10.96-10.03-8.32-7.85-13.04-17.65-15.66-28.59-2.45-10.22-3.11-20.58-2.31-31.05,0-.03-.04-.07-.12-.22Z"/>
      <path class="cls-2" d="M82.04,93.66c-4.06,0-8.1,.33-12.09,1.13-3.15,.64-6.23,1.53-9.11,2.99-2.25,1.13-2.5,2.49-.85,4.33,.57,.63,1.16,1.24,1.75,1.85,5.47,5.55,11.41,10.58,17.34,15.62,5.39,4.58,10.85,9.09,14.42,15.41,.94,1.66,2.88,1.56,3.87-.19,3.06-5.41,7.56-9.48,12.2-13.44,6.96-5.94,14.01-11.78,20.38-18.37,1.47-1.53,2.96-3.06,3.7-5.12,.68-1.88,.07-3.25-1.79-3.97-1.48-.58-2.96-.48-4.4,.16-1.64,.73-3.24,1.52-4.89,2.23-7.19,3.1-14.5,4.18-21.93,.93-5.95-2.6-12.17-3.6-18.61-3.56Z"/>
      <path class="cls-2" d="M91.13,155.42c-.42-.07-.54,.17-.7,.31-7.61,6.85-15.22,13.7-22.83,20.55-13.26,11.94-19.59,26.82-18.87,44.66,.11,2.6,.27,5.2,.79,7.87,.26-.2,.37-.28,.47-.37,12.23-10.99,25.52-20.45,40.32-27.69,.77-.38,.82-.86,.82-1.55-.01-14.58,0-29.16,0-43.79Z"/>
      <path class="cls-2" d="M141.19,228.79c.11-.24,.2-.35,.22-.48,.76-5.77,.97-11.55,.29-17.35-1.63-13.78-7.96-25.08-18.13-34.34-6.97-6.35-14.01-12.63-21.01-18.94-.89-.8-1.8-1.59-2.79-2.47-.08,.31-.14,.43-.14,.55,0,14.57,0,29.14-.03,43.71,0,.88,.5,1.11,1.09,1.4,12.68,6.22,24.27,14.09,35.03,23.2,1.82,1.54,3.62,3.11,5.48,4.71Z"/>
      <path class="cls-2" d="M95.37,252.16c17.36,0,34.72,0,52.08,0,3.63,0,6.11,2.37,5.99,5.67-.1,2.69-2.21,4.92-4.9,5.17-.42,.04-.85,.04-1.27,.04-34.58,0-69.15,0-103.73,0-3.18,0-5.23-1.35-5.98-3.93-.96-3.29,1.34-6.65,4.75-6.93,.52-.04,1.04-.03,1.56-.03,17.17,0,34.34,0,51.51,0Z"/>
      <path class="cls-3" d="M82.04,93.66c6.44-.04,12.66,.96,18.61,3.56,7.44,3.25,14.74,2.16,21.93-.93,1.64-.71,3.25-1.51,4.89-2.23,1.44-.64,2.92-.74,4.4-.16,1.85,.73,2.46,2.09,1.79,3.97-.74,2.06-2.23,3.59-3.7,5.12-6.37,6.6-13.42,12.43-20.38,18.37-4.64,3.96-9.14,8.03-12.2,13.44-.99,1.74-2.93,1.85-3.87,.19-3.57-6.31-9.03-10.82-14.42-15.41-5.93-5.04-11.86-10.08-17.34-15.62-.6-.6-1.19-1.22-1.75-1.85-1.65-1.84-1.4-3.2,.85-4.33,2.88-1.45,5.96-2.35,9.11-2.99,3.99-.8,8.02-1.13,12.09-1.13Z"/>
      <path class="cls-3" d="M91.13,155.42c0,14.62,0,29.2,0,43.79,0,.69-.05,1.17-.82,1.55-14.8,7.24-28.09,16.7-40.32,27.69-.1,.09-.22,.17-.47,.37-.52-2.67-.69-5.27-.79-7.87-.72-17.84,5.61-32.72,18.87-44.66,7.61-6.85,15.22-13.7,22.83-20.55,.16-.15,.28-.38,.7-.31Z"/>
      <path class="cls-3" d="M141.19,228.79c-1.86-1.59-3.66-3.16-5.48-4.71-10.77-9.11-22.35-16.98-35.03-23.2-.59-.29-1.1-.52-1.09-1.4,.03-14.57,.03-29.14,.03-43.71,0-.12,.06-.24,.14-.55,.99,.88,1.9,1.66,2.79,2.47,7.01,6.31,14.04,12.59,21.01,18.94,10.17,9.26,16.5,20.56,18.13,34.34,.68,5.79,.47,11.58-.29,17.35-.02,.13-.11,.25-.22,.48Z"/>
      <g>
        <path class="cls-1" d="M1108.3,19.46c19.92-.1,37.63,3.11,54.86,9.17,9.43,3.32,13.88,12.86,10.42,22.43-3.27,9.06-12.11,13.04-21.6,9.72-18.86-6.58-38.23-8.91-57.9-5.39-6.29,1.13-12.52,4.26-18.05,7.67-9.91,6.11-12.33,24.07,1.72,30.94,8.32,4.07,17.38,6.75,26.27,9.5,14.65,4.53,29.81,7.63,44.06,13.13,19.34,7.46,32.11,21.29,34.07,43.03,2.08,23.17-7.02,40.86-26.65,53.1-14.9,9.3-31.54,12.29-48.75,12.24-22.33-.07-43.89-4.42-64.57-12.97-8.26-3.41-13.36-11.37-12.18-19.05,1.85-12.07,13.05-18.54,24.39-13.5,18.56,8.26,37.97,11.25,58.08,10.26,8.12-.4,16.17-1.52,23.42-5.73,7.8-4.53,11.68-12.3,10.45-21.14-.74-5.29-4.36-8.67-8.73-10.51-8.48-3.56-17.21-6.59-25.97-9.39-14.96-4.79-30.21-8.75-45.01-13.98-11.26-3.98-20.69-11.25-27.35-21.33-7.71-11.66-9.02-24.69-6.33-38.15,4.81-24.09,20.62-37.98,42.98-45.48,11-3.69,22.38-5.09,32.35-4.58Z"/>
        <path class="cls-1" d="M1247.38,86.49c4.39-2.95,8.03-5.77,12-8,16.58-9.32,34.12-11.19,52.01-4.83,17.09,6.07,27.16,19.09,31.77,36.23,1.7,6.31,2.44,13.05,2.51,19.6,.28,24.99,.14,49.98,.1,74.97-.02,13.61-11.01,21.8-24.07,18.04-7.43-2.14-12.22-9.13-12.24-18.18-.05-23.74,.02-47.48-.06-71.23-.01-3.98-.19-8.02-.86-11.93-1.54-9.04-7.43-14.63-16.45-16.07-13.61-2.17-24.87,2.5-35.08,11.33-6.82,5.9-10.29,12.12-9.91,21.77,.87,22.08,.31,44.22,.26,66.34-.03,9.99-5.69,16.91-15.01,18.64-10.79,2-20.37-5.34-21.26-16.29-.06-.75-.06-1.5-.06-2.25,0-57.73-.01-115.46,0-173.19,0-9,4.96-16.19,12.51-18.45,12.38-3.69,23.72,4.95,23.8,18.31,.1,16.87,.03,33.74,.03,50.61,0,1.32,0,2.64,0,4.58Z"/>
        <path class="cls-1" d="M1577.72,147.3c0-12.62-.07-25.24,.05-37.86,.03-2.87-.76-4.1-3.79-3.88-3.11,.22-6.24,.07-9.37,.02-4.71-.08-8.21-2.29-10.07-6.55-1.92-4.41-1.2-8.74,2.23-12.13,12.88-12.73,25.72-25.53,38.93-37.91,6.92-6.49,16.91-2.63,18.23,6.83,.63,4.54,.4,9.22,.37,13.84-.02,2.39,.77,3.29,3.26,3.24,6.87-.14,13.74-.09,20.62-.04,9.97,.07,16.87,6.65,16.99,16.12,.12,9.54-6.95,16.52-16.91,16.62-6.87,.06-13.75,.08-20.62-.02-2.39-.03-3.34,.77-3.33,3.23,.07,24.74,0,49.48,.13,74.22,.03,6.3,1.8,8.24,8.05,8.25,5.06,.01,10.2-.58,15.15-1.6,9.78-2.02,18.57,3.75,19.94,13.58,.88,6.32-2.41,13.02-9.34,16.05-18.11,7.92-36.38,8.39-53.99-1.5-10.34-5.81-15.12-15.82-15.76-27.06-.83-14.44-.2-28.96-.2-43.44h-.57Z"/>
        <path class="cls-1" d="M1493.21,85.55c3.73-2.72,7.12-5.45,10.76-7.78,8.67-5.53,18.24-8.26,28.5-7.46,10.34,.81,16.93,8.55,16.54,18.59-.38,9.65-7.74,16.57-18.1,16.65-6.85,.05-13.36,1.11-19.57,4.18-6.78,3.35-12.24,8.19-16.72,14.13-.92,1.23-1.1,3.24-1.11,4.9-.07,25.24-.02,50.48-.06,75.72-.02,9.72-5.32,16.55-14.19,18.55-11.9,2.68-22.04-5.65-22.11-18.36-.1-18.12-.03-36.24-.03-54.36,0-19.87-.04-39.74,.02-59.61,.03-9.29,5.28-16.46,13.36-18.58,8.99-2.35,18.22,2.28,21.73,10.92,.32,.78,.61,1.56,.99,2.5Z"/>
        <path class="cls-1" d="M1382.76,147.58c0-19.24,0-38.47,0-57.71,0-7.58,3.4-13.32,10.16-16.6,6.61-3.21,13.15-2.35,19.08,2.02,4.77,3.52,6.93,8.54,6.94,14.3,.08,38.6,.1,77.19,0,115.79-.02,8.25-5.15,15.02-12.18,17.08-8.64,2.53-16.41,.42-20.78-6.66-1.97-3.2-3.03-7.46-3.09-11.26-.3-18.98-.14-37.97-.14-56.96Z"/>
        <path class="cls-1" d="M1380.46,36.44c-.04-11.56,8.74-20.39,20.34-20.44,11.62-.05,20.57,8.72,20.62,20.19,.04,11.57-8.7,20.34-20.37,20.42-11.63,.09-20.55-8.65-20.59-20.18Z"/>
        <path class="cls-1" d="M393.45,213.64c6.25,6.89,12.23,13.42,18.12,20.02,4.57,5.12,6.41,11.02,4.02,17.66-2.35,6.52-7.13,10.45-14,11.55-6.51,1.05-11.76-1.43-15.89-6.38-7.84-9.4-15.65-18.82-23.41-28.29-2.35-2.87-4.75-4.09-8.85-3.7-14.96,1.41-29.79-.26-43.94-5.24-24.06-8.48-43.31-23.37-53.72-47.04-18.33-41.66-16.4-82.07,12-119.01,15.63-20.33,37.59-30.36,62.82-33.21,14.73-1.67,29.41-1.29,43.82,2.82,28.79,8.21,49.68,25.75,61.44,53.3,12.6,29.5,12.82,59.5,.91,89.32-8.1,20.28-21.73,35.97-40.84,46.77-.64,.36-1.28,.74-2.48,1.45Zm-48.73-159.9c-4.1,.32-8.26,.33-12.3,1.03-17.13,2.94-31.52,10.69-40.7,25.83-13.03,21.49-14.64,44.57-6.91,68.15,5.51,16.81,16.56,29.45,33,36.26,17.95,7.44,36.23,7.05,54.29-.41,12.37-5.11,21.67-13.63,28.11-25.29,4.9-8.87,7.53-18.47,8.42-28.52,1.46-16.63-.15-32.9-9.06-47.37-12.46-20.24-30.84-30.26-54.84-29.68Z"/>
        <path class="cls-1" d="M953.51,134.08c8.52,11.44,16.77,22.56,25.08,33.65,6.67,8.9,13.49,17.69,20.07,26.65,8.95,12.19,3.73,25.99-11.06,28.69-7.34,1.34-13.49-1.6-17.95-7.65-12.75-17.3-25.45-34.64-38.17-51.95-1.25-1.7-2.55-3.36-4.1-5.41-5.35,4.84-10.58,9.42-15.57,14.25-.87,.84-.97,2.75-.98,4.17-.08,9.37,.04,18.75-.08,28.12-.11,9.31-5.3,15.95-13.87,18.11-10.6,2.68-20.33-3.58-22.21-14.38-.32-1.83-.41-3.73-.41-5.6-.02-56.62-.01-113.23-.02-169.85,0-6.32,1.07-12.27,6.12-16.66,5.72-4.97,12.3-6.11,19.21-3.1,7.2,3.14,10.79,9.04,11.17,16.82,.18,3.74,.05,7.5,.05,11.25,0,26.62,0,53.24,0,79.86v5.3c1.51-1.24,2.44-1.94,3.3-2.73,15.79-14.58,31.5-29.25,47.4-43.71,3.18-2.89,6.72-5.88,10.65-7.35,8.21-3.08,16.3,.24,20.39,7.33,4.29,7.44,2.74,16.54-4.14,22.81-10.34,9.42-20.81,18.71-31.23,28.06-1.11,.99-2.2,2.01-3.64,3.32Z"/>
        <path class="cls-1" d="M574.34,208.51c-5.59,3.51-10.59,7.35-16.15,10.02-20.09,9.65-46.17,8.96-63.37-6.35-12.83-11.41-18.6-26.31-18.95-42.97-.55-26.72-.26-53.46-.13-80.2,.05-10.31,8.05-18.01,18.16-18.06,10.34-.06,18.07,7.85,18.1,18.83,.08,24.86-.1,49.72,.15,74.58,.05,4.76,1.07,9.68,2.59,14.21,2.5,7.45,8.67,10.57,16.09,11.52,15.14,1.94,26.74-4.75,37.15-14.88,4.38-4.26,6.42-8.65,6.3-15.02-.43-23.35-.2-46.72-.15-70.08,.02-9.92,5.65-16.85,14.97-18.68,10.64-2.1,20.13,4.94,21.24,15.76,.05,.5,.09,1,.09,1.5,0,38.98,.06,77.95-.06,116.93-.03,8.53-5.36,15.01-13.18,17.04-9.59,2.49-18.82-2.46-22.08-11.86-.24-.7-.47-1.4-.76-2.29Z"/>
        <path class="cls-1" d="M714.75,149.01c.31-25.27,7.87-45.54,26-60.95,16.62-14.13,36.3-19.36,57.82-18.3,14.14,.7,27.16,5.1,39.24,12.38,4.6,2.77,8.4,6.08,9.65,11.77,1.47,6.67-.43,12.16-5.3,16.57-4.75,4.29-10.37,5.31-16.37,2.83-3.46-1.43-6.73-3.29-10.21-4.68-17.37-6.9-34.45-6.81-49.75,4.72-13.47,10.15-15.71,25.06-14.2,40.86,2.01,21.02,17.92,35.26,40.78,35.96,10.35,.32,19.71-2.27,28.72-6.99,4.09-2.14,8.31-3.99,13.19-3.01,7.66,1.55,12.07,6.4,13.4,13.82,1.21,6.73-1.28,12.38-6.94,16.26-10.56,7.24-22.24,11.99-34.9,13.68-22.69,3.03-43.79-1.33-62.29-15.37-16.15-12.25-25.02-28.84-27.87-48.75-.6-4.19-.76-8.44-.96-10.81Z"/>
        <path class="cls-1" d="M685.15,147.48c0,18.73,.04,37.47-.01,56.2-.03,10.56-5.2,17.06-15.17,19.35-8.35,1.92-17.69-3.34-20.18-11.6-.78-2.59-1.15-5.4-1.15-8.11-.07-37.22-.03-74.44-.07-111.66,0-6.27,1.44-11.93,6.34-16.18,6.02-5.22,12.96-5.81,19.96-2.68,7.46,3.33,10.21,9.96,10.25,17.73,.09,18.98,.03,37.97,.03,56.95Z"/>
        <path class="cls-1" d="M646.62,35.67c.04-11.62,8.8-20.2,20.54-20.13,11.68,.07,20.42,8.84,20.36,20.41-.06,11.54-8.9,20.15-20.64,20.09-11.77-.06-20.3-8.64-20.26-20.37Z"/>
      </g>
    </g>
  </g>
</svg>