<?xml version="1.0" encoding="UTF-8"?><svg xmlns="http://www.w3.org/2000/svg" width="24px" height="24px" fill="none" stroke-width="1.5" viewBox="0 0 24 24" color="#000000"><path stroke="#000000" stroke-width="1.5" stroke-linecap="round" stroke-linejoin="round" d="M22 12.6v7.8a.6.6 0 0 1-.6.6h-7.8a.6.6 0 0 1-.6-.6v-7.8a.6.6 0 0 1 .6-.6h7.8a.6.6 0 0 1 .6.6ZM19.5 14.51l.01-.011"></path><path stroke="#000000" stroke-width="1.5" stroke-linecap="round" stroke-linejoin="round" d="m13 18.2 3.5-1.2 5.5 2M2 10V3.6a.6.6 0 0 1 .6-.6h6.178a.6.6 0 0 1 .39.144l3.164 2.712a.6.6 0 0 0 .39.144H21.4a.6.6 0 0 1 .6.6V9M2 10v8.4a.6.6 0 0 0 .6.6H10m-8-9h8"></path></svg>