<?xml version="1.0" encoding="UTF-8"?>
<svg id="Layer_2" data-name="Layer 2" xmlns="http://www.w3.org/2000/svg" viewBox="0 0 639.9 639.91">
  <defs>
    <style>
      .cls-1 {
        fill: #fff;
      }
    </style>
  </defs>
  <g id="_2nd_from_left" data-name="2nd from left">
    <path class="cls-1" d="M488.79,601.05c-33.29-21.69-65.76-42.84-98.9-64.43-22.73,34.31-45.29,68.35-68.44,103.29-18.45-38.92-36.4-76.78-54.67-115.32-36.37,20.45-72.38,40.7-109.6,61.62,2.61-37.8,5.13-74.37,7.7-111.7-47.18,14.86-93.59,29.49-140,44.11-.25-.32-.49-.64-.74-.96,25.93-39.06,51.86-78.11,78.24-117.85-29.14-17.44-57.91-34.66-87.65-52.45,22.47-20.01,44.37-39.52,66.79-59.48C54.53,258.57,27.84,229.59,0,199.36c40.22-.68,78.99-1.34,118.42-2.01-5.94-31.09-11.71-61.27-17.66-92.46,36.24,7.29,71.67,14.43,107.57,21.65,8.68-42.11,17.23-83.61,26.08-126.54,30.73,34.81,60.64,68.68,91.05,103.13,25.33-25.98,50.37-51.66,76.22-78.16,11.12,33.59,21.91,66.2,33.02,99.78,43.54-20.1,86.65-40,131.39-60.65-13.55,42.56-26.66,83.74-39.94,125.47,37.86,6.74,75.08,13.36,113.75,20.24-32.78,25.5-64.29,50.01-96.52,75.09,30.96,20.82,61.41,41.29,93.05,62.57-29.43,13.39-57.77,26.29-86.92,39.55,26.61,40.05,52.98,79.75,80.14,120.63-6.06-.72-10.91-1.21-15.73-1.87-33.17-4.52-66.34-9.02-99.49-13.71-3.97-.56-5.46,.19-6.2,4.38-5.94,33.28-12.14,66.51-18.28,99.75-.23,1.26-.59,2.5-1.16,4.85Zm20.38-314.97c27.7-21.56,54.66-42.54,82.76-64.41-31.5-5.6-61.37-10.92-91.85-16.34,11.02-34.62,21.81-68.54,32.61-102.45-.38-.24-.76-.48-1.14-.72-36.05,16.64-72.1,33.28-108.81,50.22-9.94-29.99-19.68-59.39-29.74-89.75-23.21,23.8-45.59,46.74-68.25,69.97-26.3-29.78-52.09-58.99-78.39-88.78-.75,1.9-1.09,2.47-1.22,3.1-6.76,32.95-13.57,65.89-20.18,98.87-.78,3.87-2.25,4.24-5.77,3.5-24.94-5.21-49.92-10.21-74.89-15.24-5.78-1.16-11.6-2.17-18.19-3.4,5.57,29.19,10.95,57.38,16.47,86.27-32.56,.61-64.36,1.2-97.44,1.81,22.32,24.25,43.56,47.33,64.96,70.57-20.8,18.53-41.04,36.54-61.61,54.86,27.71,16.57,54.69,32.71,82.23,49.18-19.65,29.63-38.99,58.79-58.33,87.95,.27,.34,.54,.69,.81,1.03,37.6-11.82,75.19-23.64,113.69-35.74-2.41,35.11-4.74,69-7.14,103.93,32.57-18.31,64-35.99,95.93-53.94,16.26,34.29,32.27,68.05,48.69,102.66,20.2-30.5,39.85-60.17,59.78-90.27,30.3,19.73,60.17,39.18,90.5,58.93,.62-3.09,1.08-5.19,1.47-7.31,5.37-29.15,10.76-58.3,16.03-87.47,.55-3.07,1.47-4.12,4.87-3.63,24.4,3.5,48.83,6.78,73.26,10.08,5.61,.76,11.24,1.35,18.07,2.16-23.29-35.05-45.74-68.85-68.57-103.21,25.25-11.5,49.95-22.74,75.65-34.44-29.12-19.58-57.27-38.5-86.24-57.98Z"/>
    <path class="cls-1" d="M296.76,415.42c-20.11,15.99-43.12,17.87-62.79,4.48-5.18-3.53-8.58-3.88-14.36-1.45-24.25,10.21-55.32-1.05-60.11-30.74-1.11-6.89-3.13-13.64-4.35-20.52-5.08-28.79-7.81-57.79-6.45-87.05,.85-18.24,3.54-36.21,11.41-52.9,6.32-13.4,16.09-23.43,31.22-26.29,4.57-.87,9.69-.18,14.31,.88,9.59,2.2,17.34,.5,23.22-7.96,2.16-3.11,5.04-5.77,7.77-8.45,10.5-10.32,22.96-13.34,36.79-8.55,10.48,3.63,19.28,1.63,28.18-4.6,6.87-4.81,14.25-9.73,22.15-12.03,12.24-3.56,24.04,.44,34.79,6.9,3.7,2.23,7.28,4.74,10.56,7.55,5.95,5.09,12.46,6.11,20.04,4.63,11.75-2.29,23.54-4.54,35.58-.86,16.89,5.17,28.35,15.29,32.91,32.87,9.1,35.1,13.23,70.69,11.33,106.91-.42,8.07,.33,15.48,5.43,22.13,1.8,2.35,2.72,5.34,4.29,7.89,14.24,23.12,12.94,48.01,7.94,73.12-1.64,8.23-3.94,16.66-7.74,24.07-7.8,15.19-21.24,22.15-38.19,23.26-26.27,1.73-52.48,4.22-78.76,5.7-8.37,.47-17.06-.32-25.26-2.11-18.43-4.02-27.74-15.67-27.51-34.5,.1-8.13,.37-15.27-8.57-18.94-1.42-.58-2.44-2.17-3.83-3.46Zm11.26-88.46c-.52,0-1.04,0-1.55,0,0,7-.22,14,.05,20.99,.58,14.96,1.1,29.93,2.26,44.85,.71,9.04,6.45,14.85,15.29,16.02,7.48,.99,15.24,1.02,22.75,.24,8.59-.9,14.37-6.8,19.75-13.3,4.41-5.33,1.75-10.7,1.68-16.12-.4-33.8-1.29-67.61-.85-101.4,.12-9.37,4.06-18.72,6.56-27.99,.37-1.36,2.43-2.91,3.87-3.09,.95-.12,2.56,1.87,3.22,3.23,1.15,2.38,2.28,4.94,2.57,7.53,1.22,10.72,2.74,21.45,3.01,32.21,.72,28.81,.5,57.64,1.35,86.44,.41,13.95,6.85,19.67,20.84,20.1,14.87,.46,28.2-2.96,34.57-18.26,2.31-5.56,3.6-11.85,3.92-17.88,1.04-19.96,1.76-39.95,1.99-59.93,.32-28.31-4.05-56.07-10.78-83.52-2.37-9.66-8.32-15.52-17.54-18.74-7.78-2.72-15.51-2.04-23.15-.12-16.52,4.16-31.37,1.78-44.12-10.14-.36-.34-.79-.61-1.2-.9-13.44-9.38-23.43-11.64-37.05-.44-14.46,11.9-30.58,15.65-48.58,9.08-6.36-2.32-11.79-.64-16.36,4.13-4.38,4.57-8.64,9.25-13.04,13.8-5.88,6.08-13.18,8.98-21.56,8.86-4.48-.07-9.07-.24-13.38-1.3-7.73-1.89-13.88,.23-18.66,6.22-2.56,3.21-4.99,6.71-6.59,10.46-5.64,13.17-7.91,27.16-8.53,41.36-1.59,36.53,2.51,72.53,11.5,107.91,1.04,4.1,4.47,8.26,7.91,10.96,6.93,5.42,20.83,4.98,27.96-.16,1.03-.74,1.86-2.76,1.67-4.03-4.47-30.97-4.39-62.11-3.69-93.27,.26-11.74,2.09-23.27,7.78-33.76,1.05-1.92,3.5-3.08,5.3-4.59,1.38,1.74,3.69,3.34,3.98,5.24,1.39,9.17,2.9,18.4,3.13,27.64,.38,14.64-.73,29.33-.28,43.96,.51,16.29,1.5,32.62,3.33,48.81,1.46,12.87,5.84,16.62,18.55,19.44,1.63,.36,3.26,.76,4.92,.89,7.58,.58,14.25-1.14,20.39-6.2,5.94-4.89,6.48-10.28,6.43-17.66-.22-37.46,.38-74.93,1.28-112.38,.16-6.81,2.74-13.66,4.89-20.27,.81-2.48,3.56-4.34,5.42-6.48,1.71,2.32,4.49,4.44,4.95,6.98,1.69,9.45,3.3,19.01,3.66,28.58,.59,15.3,.16,30.64,.16,45.97Zm159.82,45.69c-6.18,18.31-14.69,33.87-33.66,40.22-17.76,5.94-35.59,6.4-52.4-4.33-12.34,16.69-29.08,22.67-48.76,21.72-3.26-.16-3.93,1.28-4.09,4.06-.7,12.32,3.71,18.18,16.12,19.29,8.56,.77,17.28,.61,25.88,.06,22.76-1.45,45.51-3.18,68.23-5.13,15.27-1.31,22.97-7.37,25.8-22.42,2.69-14.32,3.63-28.98,4.89-43.53,.28-3.23-1.29-6.63-2.01-9.95Z"/>
  </g>
</svg>