<?xml version="1.0" encoding="UTF-8"?>
<svg id="Layer_2" data-name="Layer 2" xmlns="http://www.w3.org/2000/svg" viewBox="0 0 245.07 110.76">
  <defs>
    <style>
      .cls-1 {
        fill: #fff;
      }
    </style>
  </defs>
  <g id="Layer_3" data-name="Layer 3">
    <path class="cls-1" d="M.58,81.68c5.58,1.02,11.13,2.33,16.75,3,21.63,2.57,42.43-.57,62.67-8.71,24.61-9.9,46.49-24.49,68.52-38.86,15.89-10.37,32.09-20.23,49.6-27.6C211.74,3.77,225.95-.06,240.94,0c1.22,0,2.44,.11,3.89,.19,.08,1.38,.21,2.47,.21,3.57,.01,14.24-.02,28.48,.04,42.72,0,2.29-.23,3.92-3.17,3.66-25.34-2.18-47.43,7.46-68.83,19.26-15.07,8.31-29.76,17.31-44.84,25.61-17.83,9.82-36.78,16.1-57.4,15.73-15.04-.27-29.46-3.57-42.77-10.74-8.44-4.55-16.61-9.6-24.86-14.52-1.22-.73-2.15-1.94-3.21-2.93,.19-.29,.39-.59,.58-.88Z"/>
  </g>
</svg>
<?xml version="1.0" encoding="UTF-8"?>
<svg id="Layer_2" data-name="Layer 2" xmlns="http://www.w3.org/2000/svg" viewBox="0 0 245.07 110.76">
  <defs>
    <style>
      .cls-1 {
        fill: #fff;
      }
    </style>
  </defs>
  <g id="Layer_3" data-name="Layer 3">
    <path class="cls-1" d="M.58,81.68c5.58,1.02,11.13,2.33,16.75,3,21.63,2.57,42.43-.57,62.67-8.71,24.61-9.9,46.49-24.49,68.52-38.86,15.89-10.37,32.09-20.23,49.6-27.6C211.74,3.77,225.95-.06,240.94,0c1.22,0,2.44,.11,3.89,.19,.08,1.38,.21,2.47,.21,3.57,.01,14.24-.02,28.48,.04,42.72,0,2.29-.23,3.92-3.17,3.66-25.34-2.18-47.43,7.46-68.83,19.26-15.07,8.31-29.76,17.31-44.84,25.61-17.83,9.82-36.78,16.1-57.4,15.73-15.04-.27-29.46-3.57-42.77-10.74-8.44-4.55-16.61-9.6-24.86-14.52-1.22-.73-2.15-1.94-3.21-2.93,.19-.29,.39-.59,.58-.88Z"/>
  </g>
</svg>