<?xml version="1.0" encoding="UTF-8"?>
<svg id="Layer_2" data-name="Layer 2" xmlns="http://www.w3.org/2000/svg" viewBox="0 0 264 164.91">
  <defs>
    <style>
      .cls-1, .cls-2 {
        fill: #fff;
      }

      .cls-3 {
        fill: none;
      }

      .cls-2 {
        font-family: Dubai-Regular, Dubai;
        font-size: 110px;
      }
    </style>
  </defs>
  <g id="Layer_3" data-name="Layer 3">
    <g>
      <rect class="cls-3" y="0" width="264" height="140" rx="6.82" ry="6.82"/>
      <text class="cls-2" transform="translate(166 109.14)"><tspan x="0" y="0">4</tspan></text>
      <path class="cls-1" d="M132.74,80.52c-3.24-2.26-6.49-4.53-9.75-6.76-.55-.38-.81-.76-.71-1.43,.39-2.8,.68-5.6,.06-8.41-.06-.27,.37-.74,.67-1,2.86-2.34,5.75-4.66,8.63-6.98,1.68-1.35,1.86-2.28,.78-4.16-2.89-5.05-5.79-10.1-8.68-15.16-.96-1.67-2.01-2.07-3.84-1.34-3.27,1.29-6.56,2.53-9.78,3.94-1.36,.6-2.32,.54-3.56-.36-1.74-1.25-3.72-2.19-5.62-3.2-.67-.36-1.03-.76-1.14-1.56-.49-3.55-1.06-7.1-1.6-10.64-.04-.29-.13-.59-.09-.87,.1-.68-.04-1.21-.4-1.67-.16-.1-.29-.23-.39-.4-.13-.11-.27-.21-.43-.31h.28s-.02-.05-.03-.09c-.01-.04-.02-.09-.03-.13-7.16,0-14.31,0-21.47,0-.02,.07-.05,.15-.08,.22h.41c-.26,.11-.48,.25-.67,.4-.08,.1-.18,.19-.29,.27-.69,.77-.75,1.86-.9,2.91-.5,3.51-1.01,7.03-1.57,10.53-.06,.39-.39,.84-.73,1.05-2.17,1.34-4.41,2.59-6.57,3.95-.68,.43-1.21,.59-2,.25-3.29-1.43-6.62-2.77-9.92-4.16-2.07-.87-3.38-.46-4.51,1.5-3.01,5.24-6.01,10.48-9.01,15.72-.66,1.15-.21,2.46,1.23,3.56,2.94,2.25,5.87,4.5,8.84,6.71,.68,.5,.91,1.01,.78,1.84-.42,2.69-.62,5.38-.05,8.08,.05,.26-.3,.7-.57,.92-2.95,2.41-5.92,4.79-8.88,7.19-1.52,1.23-1.72,2.14-.78,3.79,3.03,5.31,6.08,10.61,9.1,15.92,.56,.99,1.42,1.26,2.41,1.1,.78-.13,1.55-.42,2.29-.72,3.3-1.3,6.59-2.64,9.9-3.93,.31-.12,.8-.09,1.09,.08,2.32,1.31,4.6,2.7,6.93,4,.61,.34,.87,.73,.97,1.42,.54,3.69,1.17,7.37,1.69,11.07,.17,1.19,.75,1.92,1.77,2.41h20.67c1.41-.66,1.88-1.83,2.06-3.32,.42-3.34,1.01-6.66,1.48-9.99,.11-.81,.45-1.26,1.17-1.66,2.3-1.28,4.53-2.67,6.82-3.98,.28-.16,.77-.15,1.08-.03,3.48,1.36,6.94,2.76,10.4,4.14,2.43,.97,3.16,.72,4.46-1.56,2.95-5.15,5.89-10.3,8.84-15.45,.95-1.67,.75-2.65-.8-3.72Zm-46.31,4.71c-9.15-.06-16.92-7.81-16.85-16.84,.07-9.21,7.86-16.97,16.94-16.88,9.26,.1,16.89,7.84,16.84,17.08-.05,9-7.88,16.69-16.92,16.64Z"/>
    </g>
  </g>
</svg>