<?xml version="1.0" encoding="UTF-8" standalone="no"?>
<!DOCTYPE svg PUBLIC "-//W3C//DTD SVG 1.1//EN" "http://www.w3.org/Graphics/SVG/1.1/DTD/svg11.dtd">
<svg width="100%" height="100%" viewBox="0 0 237 237" version="1.1" xmlns="http://www.w3.org/2000/svg" xmlns:xlink="http://www.w3.org/1999/xlink" xml:space="preserve" xmlns:serif="http://www.serif.com/" style="fill-rule:evenodd;clip-rule:evenodd;stroke-linecap:square;stroke-linejoin:round;">
    <g transform="matrix(1,0,0,1,-259.843,-605.232)">
        <g transform="matrix(0.526316,0,0,0.526316,123.083,244.685)">
            <rect x="259.843" y="685.039" width="448.819" height="448.819" style="fill:none;"/>
        </g>
        <g transform="matrix(1,0,0,1,2,-2)">
            <path d="M413.386,694.827C413.386,689.425 409,685.039 403.599,685.039L281.441,685.039C276.039,685.039 271.654,689.425 271.654,694.827L271.654,816.984C271.654,822.386 276.039,826.772 281.441,826.772L403.599,826.772C409,826.772 413.386,822.386 413.386,816.984L413.386,694.827Z" style="fill:rgb(255,202,58);fill-opacity:0.2;"/>
        </g>
        <g transform="matrix(0.624715,0,0,0.624715,-158.357,279.603)">
            <g transform="matrix(0.436973,0,0,0.436973,537.931,289.918)">
                <g transform="matrix(10.4889,0,0,10.4889,359.649,819.104)">
                    <path d="M21.665,3.6C21.665,2.906 21.094,2.335 20.4,2.335L3.6,2.335C2.906,2.335 2.335,2.906 2.335,3.6L2.335,20.4C2.335,21.094 2.906,21.665 3.6,21.665L20.4,21.665C21.094,21.665 21.665,21.094 21.665,20.4C21.665,20.4 21.665,3.6 21.665,3.6ZM21,3.6L21,20.4C21,20.729 20.729,21 20.4,21L3.6,21C3.271,21 3,20.729 3,20.4L3,3.6C3,3.271 3.271,3 3.6,3L20.4,3C20.729,3 21,3.271 21,3.6Z" style="fill:rgb(255,202,58);"/>
                </g>
                <g transform="matrix(10.4889,0,0,10.4889,359.649,819.104)">
                    <path d="M3,16L10,13L21,18M16,10C14.903,10 14,9.097 14,8C14,6.903 14.903,6 16,6C17.097,6 18,6.903 18,8C18,9.097 17.097,10 16,10Z" style="fill:none;fill-rule:nonzero;stroke:rgb(255,202,58);stroke-width:0.67px;"/>
                </g>
            </g>
            <g transform="matrix(0.436973,0,0,0.436973,647.931,289.918)">
                <g transform="matrix(10.4889,0,0,10.4889,359.649,819.104)">
                    <path d="M21.665,3.6C21.665,2.906 21.094,2.335 20.4,2.335L3.6,2.335C2.906,2.335 2.335,2.906 2.335,3.6C2.335,3.6 2.335,20.4 2.335,20.4C2.335,21.094 2.906,21.665 3.6,21.665L20.4,21.665C21.094,21.665 21.665,21.094 21.665,20.4L21.665,3.6ZM21,3.6L21,20.4C21,20.729 20.729,21 20.4,21L3.6,21C3.271,21 3,20.729 3,20.4L3,3.6C3,3.271 3.271,3 3.6,3L20.4,3C20.729,3 21,3.271 21,3.6Z" style="fill:rgb(255,202,58);"/>
                </g>
                <g transform="matrix(10.4889,0,0,10.4889,359.649,819.104)">
                    <path d="M3,16L10,13L21,18M16,10C14.903,10 14,9.097 14,8C14,6.903 14.903,6 16,6C17.097,6 18,6.903 18,8C18,9.097 17.097,10 16,10Z" style="fill:none;fill-rule:nonzero;stroke:rgb(255,202,58);stroke-width:0.67px;"/>
                </g>
            </g>
            <g transform="matrix(0.436973,0,0,0.436973,537.931,399.918)">
                <g transform="matrix(10.4889,0,0,10.4889,359.649,819.104)">
                    <path d="M21.665,3.6C21.665,2.906 21.094,2.335 20.4,2.335L3.6,2.335C2.906,2.335 2.335,2.906 2.335,3.6L2.335,20.4C2.335,21.094 2.906,21.665 3.6,21.665L20.4,21.665C21.094,21.665 21.665,21.094 21.665,20.4C21.665,20.4 21.665,3.6 21.665,3.6ZM21,3.6L21,20.4C21,20.729 20.729,21 20.4,21L3.6,21C3.271,21 3,20.729 3,20.4L3,3.6C3,3.271 3.271,3 3.6,3L20.4,3C20.729,3 21,3.271 21,3.6Z" style="fill:rgb(255,202,58);"/>
                </g>
                <g transform="matrix(10.4889,0,0,10.4889,359.649,819.104)">
                    <path d="M3,16L10,13L21,18M16,10C14.903,10 14,9.097 14,8C14,6.903 14.903,6 16,6C17.097,6 18,6.903 18,8C18,9.097 17.097,10 16,10Z" style="fill:none;fill-rule:nonzero;stroke:rgb(255,202,58);stroke-width:0.67px;"/>
                </g>
            </g>
            <g transform="matrix(0.436973,0,0,0.436973,647.931,399.918)">
                <g transform="matrix(10.4889,0,0,10.4889,359.649,819.104)">
                    <path d="M21.665,3.6C21.665,2.906 21.094,2.335 20.4,2.335L3.6,2.335C2.906,2.335 2.335,2.906 2.335,3.6C2.335,3.6 2.335,20.4 2.335,20.4C2.335,21.094 2.906,21.665 3.6,21.665L20.4,21.665C21.094,21.665 21.665,21.094 21.665,20.4L21.665,3.6ZM21,3.6L21,20.4C21,20.729 20.729,21 20.4,21L3.6,21C3.271,21 3,20.729 3,20.4L3,3.6C3,3.271 3.271,3 3.6,3L20.4,3C20.729,3 21,3.271 21,3.6Z" style="fill:rgb(255,202,58);"/>
                </g>
                <g transform="matrix(10.4889,0,0,10.4889,359.649,819.104)">
                    <path d="M3,16L10,13L21,18M16,10C14.903,10 14,9.097 14,8C14,6.903 14.903,6 16,6C17.097,6 18,6.903 18,8C18,9.097 17.097,10 16,10Z" style="fill:none;fill-rule:nonzero;stroke:rgb(255,202,58);stroke-width:0.67px;"/>
                </g>
            </g>
        </g>
        <g transform="matrix(0.437381,0,0,0.437381,143.461,297.465)">
            <g transform="matrix(47.632,0,0,47.632,316.685,785.3)">
                <rect x="0.093" y="-0.716" width="0.095" height="0.716" style="fill:rgb(254,255,254);fill-rule:nonzero;"/>
            </g>
            <g transform="matrix(47.632,0,0,47.632,331.594,785.3)">
                <path d="M0.074,-0L0.074,-0.716L0.217,-0.716L0.386,-0.209C0.402,-0.162 0.413,-0.126 0.42,-0.103C0.429,-0.129 0.441,-0.167 0.458,-0.218L0.63,-0.716L0.757,-0.716L0.757,-0L0.666,-0L0.666,-0.599L0.458,-0L0.373,-0L0.166,-0.609L0.166,-0L0.074,-0Z" style="fill:rgb(254,255,254);fill-rule:nonzero;"/>
            </g>
            <g transform="matrix(47.632,0,0,47.632,372.946,785.3)">
                <path d="M-0.001,-0L0.273,-0.716L0.375,-0.716L0.668,-0L0.561,-0L0.477,-0.217L0.178,-0.217L0.099,-0L-0.001,-0ZM0.205,-0.294L0.448,-0.294L0.373,-0.492C0.35,-0.552 0.333,-0.602 0.322,-0.641C0.313,-0.595 0.3,-0.549 0.284,-0.504L0.205,-0.294Z" style="fill:rgb(254,255,254);fill-rule:nonzero;"/>
            </g>
            <g transform="matrix(47.632,0,0,47.632,406.391,785.3)">
                <path d="M0.412,-0.281L0.412,-0.365L0.715,-0.365L0.715,-0.1C0.669,-0.063 0.621,-0.035 0.571,-0.016C0.522,0.003 0.471,0.012 0.419,0.012C0.349,0.012 0.285,-0.003 0.227,-0.033C0.17,-0.063 0.126,-0.107 0.097,-0.164C0.068,-0.221 0.053,-0.284 0.053,-0.354C0.053,-0.424 0.068,-0.489 0.097,-0.55C0.126,-0.61 0.168,-0.655 0.223,-0.684C0.277,-0.713 0.34,-0.728 0.412,-0.728C0.463,-0.728 0.51,-0.72 0.552,-0.703C0.594,-0.686 0.627,-0.663 0.65,-0.633C0.674,-0.603 0.692,-0.564 0.705,-0.516L0.619,-0.492C0.608,-0.529 0.595,-0.557 0.579,-0.578C0.563,-0.599 0.54,-0.616 0.511,-0.628C0.481,-0.641 0.448,-0.647 0.412,-0.647C0.369,-0.647 0.331,-0.64 0.3,-0.627C0.268,-0.614 0.243,-0.597 0.223,-0.575C0.204,-0.554 0.189,-0.53 0.178,-0.504C0.16,-0.46 0.151,-0.412 0.151,-0.36C0.151,-0.297 0.162,-0.243 0.184,-0.2C0.206,-0.157 0.238,-0.125 0.28,-0.104C0.322,-0.084 0.366,-0.073 0.414,-0.073C0.455,-0.073 0.495,-0.081 0.534,-0.097C0.573,-0.113 0.602,-0.13 0.623,-0.147L0.623,-0.281L0.412,-0.281Z" style="fill:rgb(254,255,254);fill-rule:nonzero;"/>
            </g>
            <g transform="matrix(47.632,0,0,47.632,445.115,785.3)">
                <path d="M0.079,-0L0.079,-0.716L0.597,-0.716L0.597,-0.631L0.174,-0.631L0.174,-0.412L0.57,-0.412L0.57,-0.328L0.174,-0.328L0.174,-0.084L0.613,-0.084L0.613,-0L0.079,-0Z" style="fill:rgb(254,255,254);fill-rule:nonzero;"/>
            </g>
            <g transform="matrix(67.9728,0,0,67.9728,317.043,851.985)">
                <path d="M0.074,-0L0.074,-0.716L0.564,-0.716L0.564,-0.595L0.218,-0.595L0.218,-0.425L0.517,-0.425L0.517,-0.304L0.218,-0.304L0.218,-0L0.074,-0Z" style="fill:rgb(254,255,254);fill-rule:nonzero;"/>
            </g>
            <g transform="matrix(67.9728,0,0,67.9728,360.953,851.985)">
                <path d="M0.043,-0.354C0.043,-0.426 0.054,-0.488 0.076,-0.537C0.092,-0.574 0.115,-0.606 0.143,-0.635C0.171,-0.664 0.202,-0.686 0.235,-0.7C0.28,-0.719 0.331,-0.728 0.39,-0.728C0.495,-0.728 0.58,-0.695 0.643,-0.63C0.706,-0.564 0.738,-0.473 0.738,-0.357C0.738,-0.241 0.706,-0.151 0.644,-0.086C0.581,-0.02 0.497,0.012 0.392,0.012C0.285,0.012 0.201,-0.02 0.138,-0.085C0.075,-0.15 0.043,-0.24 0.043,-0.354ZM0.192,-0.358C0.192,-0.277 0.211,-0.216 0.249,-0.174C0.286,-0.132 0.333,-0.111 0.391,-0.111C0.449,-0.111 0.496,-0.132 0.533,-0.174C0.57,-0.215 0.588,-0.277 0.588,-0.36C0.588,-0.442 0.57,-0.504 0.534,-0.544C0.498,-0.584 0.451,-0.604 0.391,-0.604C0.332,-0.604 0.284,-0.584 0.247,-0.543C0.211,-0.502 0.192,-0.441 0.192,-0.358Z" style="fill:rgb(254,255,254);fill-rule:nonzero;"/>
            </g>
            <g transform="matrix(67.9728,0,0,67.9728,416.214,851.985)">
                <path d="M0.077,-0L0.077,-0.71L0.221,-0.71L0.221,-0.121L0.581,-0.121L0.581,-0L0.077,-0Z" style="fill:rgb(254,255,254);fill-rule:nonzero;"/>
            </g>
            <g transform="matrix(67.9728,0,0,67.9728,460.124,851.985)">
                <path d="M0.072,-0.716L0.336,-0.716C0.396,-0.716 0.441,-0.711 0.473,-0.702C0.515,-0.69 0.551,-0.668 0.581,-0.636C0.611,-0.605 0.633,-0.566 0.649,-0.52C0.665,-0.475 0.672,-0.418 0.672,-0.351C0.672,-0.292 0.665,-0.241 0.65,-0.199C0.632,-0.147 0.607,-0.104 0.574,-0.072C0.549,-0.048 0.515,-0.029 0.472,-0.015C0.44,-0.005 0.398,-0 0.344,-0L0.072,-0L0.072,-0.716ZM0.217,-0.595L0.217,-0.121L0.325,-0.121C0.365,-0.121 0.394,-0.123 0.412,-0.127C0.436,-0.133 0.455,-0.143 0.47,-0.157C0.486,-0.171 0.499,-0.194 0.508,-0.226C0.518,-0.258 0.523,-0.302 0.523,-0.357C0.523,-0.413 0.518,-0.455 0.508,-0.485C0.499,-0.514 0.485,-0.538 0.467,-0.554C0.45,-0.571 0.427,-0.582 0.4,-0.588C0.38,-0.592 0.341,-0.595 0.282,-0.595L0.217,-0.595Z" style="fill:rgb(254,255,254);fill-rule:nonzero;"/>
            </g>
            <g transform="matrix(67.9728,0,0,67.9728,511.602,851.985)">
                <path d="M0.073,-0L0.073,-0.716L0.604,-0.716L0.604,-0.595L0.217,-0.595L0.217,-0.436L0.577,-0.436L0.577,-0.315L0.217,-0.315L0.217,-0.121L0.617,-0.121L0.617,-0L0.073,-0Z" style="fill:rgb(254,255,254);fill-rule:nonzero;"/>
            </g>
            <g transform="matrix(67.9728,0,0,67.9728,559.329,851.985)">
                <path d="M0.073,-0L0.073,-0.716L0.377,-0.716C0.454,-0.716 0.51,-0.709 0.544,-0.697C0.579,-0.684 0.607,-0.661 0.627,-0.628C0.648,-0.595 0.659,-0.557 0.659,-0.515C0.659,-0.461 0.643,-0.417 0.611,-0.382C0.58,-0.347 0.533,-0.325 0.47,-0.316C0.501,-0.298 0.527,-0.278 0.547,-0.256C0.567,-0.234 0.595,-0.195 0.629,-0.14L0.717,-0L0.544,-0L0.439,-0.156C0.402,-0.211 0.377,-0.247 0.363,-0.261C0.35,-0.275 0.335,-0.285 0.32,-0.291C0.305,-0.296 0.28,-0.299 0.247,-0.299L0.218,-0.299L0.218,-0L0.073,-0ZM0.218,-0.413L0.325,-0.413C0.394,-0.413 0.437,-0.416 0.455,-0.422C0.472,-0.428 0.485,-0.438 0.495,-0.452C0.505,-0.466 0.51,-0.484 0.51,-0.506C0.51,-0.53 0.503,-0.549 0.49,-0.564C0.478,-0.579 0.459,-0.588 0.436,-0.592C0.424,-0.594 0.389,-0.595 0.331,-0.595L0.218,-0.595L0.218,-0.413Z" style="fill:rgb(254,255,254);fill-rule:nonzero;"/>
            </g>
        </g>
    </g>
</svg>
