<?xml version="1.0" encoding="UTF-8" standalone="no"?>
<!DOCTYPE svg PUBLIC "-//W3C//DTD SVG 1.1//EN" "http://www.w3.org/Graphics/SVG/1.1/DTD/svg11.dtd">
<svg width="100%" height="100%" viewBox="0 0 237 237" version="1.1" xmlns="http://www.w3.org/2000/svg" xmlns:xlink="http://www.w3.org/1999/xlink" xml:space="preserve" xmlns:serif="http://www.serif.com/" style="fill-rule:evenodd;clip-rule:evenodd;stroke-linecap:square;">
    <g transform="matrix(1,0,0,1,-259.843,-605.232)">
        <g transform="matrix(0.526316,0,0,0.526316,123.083,244.685)">
            <rect x="259.843" y="685.039" width="448.819" height="448.819" style="fill:none;"/>
        </g>
        <g transform="matrix(1,0,0,1,2,-2)">
            <path d="M413.386,694.827C413.386,689.425 409,685.039 403.599,685.039L281.441,685.039C276.039,685.039 271.654,689.425 271.654,694.827L271.654,816.984C271.654,822.386 276.039,826.772 281.441,826.772L403.599,826.772C409,826.772 413.386,822.386 413.386,816.984L413.386,694.827Z" style="fill:rgb(255,202,58);fill-opacity:0.2;"/>
        </g>
        <g transform="matrix(0.624649,0,0,0.624649,41.2433,162.908)">
            <g transform="matrix(10.4889,0,0,10.4889,359.649,819.104)">
                <path d="M21.298,3.6C21.298,3.108 20.892,2.702 20.4,2.702L3.6,2.702C3.108,2.702 2.702,3.108 2.702,3.6C2.702,3.6 2.702,20.4 2.702,20.4C2.702,20.892 3.108,21.298 3.6,21.298C3.6,21.298 20.4,21.298 20.4,21.298C20.892,21.298 21.298,20.892 21.298,20.4C21.298,20.4 21.298,3.6 21.298,3.6ZM21,3.6L21,20.4C21,20.729 20.729,21 20.4,21L3.6,21C3.271,21 3,20.729 3,20.4L3,3.6C3,3.271 3.271,3 3.6,3L20.4,3C20.729,3 21,3.271 21,3.6Z" style="fill:rgb(255,202,58);"/>
            </g>
            <g transform="matrix(10.4889,0,0,10.4889,359.649,819.104)">
                <path d="M3,16L10,13L21,18M16,10C14.903,10 14,9.097 14,8C14,6.903 14.903,6 16,6C17.097,6 18,6.903 18,8C18,9.097 17.097,10 16,10Z" style="fill:none;fill-rule:nonzero;stroke:rgb(255,202,58);stroke-width:0.3px;"/>
            </g>
        </g>
        <g transform="matrix(0.437381,0,0,0.437381,143.461,297.465)">
            <g transform="matrix(47.632,0,0,47.632,316.685,785.3)">
                <path d="M0.045,-0.23L0.134,-0.238C0.139,-0.202 0.148,-0.173 0.164,-0.15C0.179,-0.127 0.203,-0.108 0.236,-0.094C0.268,-0.08 0.305,-0.073 0.346,-0.073C0.382,-0.073 0.414,-0.078 0.441,-0.089C0.469,-0.1 0.49,-0.114 0.503,-0.133C0.517,-0.152 0.523,-0.172 0.523,-0.194C0.523,-0.217 0.517,-0.236 0.504,-0.253C0.491,-0.27 0.469,-0.284 0.439,-0.295C0.42,-0.303 0.378,-0.315 0.312,-0.33C0.246,-0.346 0.2,-0.361 0.174,-0.375C0.14,-0.393 0.114,-0.415 0.097,-0.442C0.081,-0.468 0.072,-0.498 0.072,-0.531C0.072,-0.567 0.083,-0.601 0.103,-0.632C0.124,-0.663 0.153,-0.687 0.193,-0.704C0.232,-0.72 0.276,-0.728 0.324,-0.728C0.377,-0.728 0.424,-0.719 0.465,-0.702C0.505,-0.685 0.536,-0.66 0.558,-0.627C0.58,-0.594 0.592,-0.556 0.593,-0.514L0.502,-0.507C0.498,-0.553 0.481,-0.587 0.453,-0.61C0.425,-0.633 0.383,-0.645 0.328,-0.645C0.271,-0.645 0.229,-0.634 0.203,-0.613C0.177,-0.592 0.164,-0.567 0.164,-0.537C0.164,-0.511 0.173,-0.49 0.191,-0.474C0.21,-0.457 0.257,-0.44 0.334,-0.423C0.411,-0.405 0.464,-0.39 0.493,-0.377C0.534,-0.358 0.565,-0.333 0.585,-0.304C0.605,-0.274 0.615,-0.241 0.615,-0.202C0.615,-0.164 0.604,-0.128 0.582,-0.094C0.56,-0.061 0.529,-0.035 0.488,-0.016C0.447,0.003 0.401,0.012 0.35,0.012C0.285,0.012 0.231,0.003 0.187,-0.016C0.143,-0.035 0.109,-0.063 0.084,-0.101C0.059,-0.139 0.046,-0.182 0.045,-0.23Z" style="fill:rgb(254,255,254);fill-rule:nonzero;"/>
            </g>
            <g transform="matrix(47.632,0,0,47.632,350.13,785.3)">
                <rect x="0.093" y="-0.716" width="0.095" height="0.716" style="fill:rgb(254,255,254);fill-rule:nonzero;"/>
            </g>
            <g transform="matrix(47.632,0,0,47.632,365.038,785.3)">
                <path d="M0.076,-0L0.076,-0.716L0.173,-0.716L0.549,-0.154L0.549,-0.716L0.64,-0.716L0.64,-0L0.543,-0L0.167,-0.563L0.167,-0L0.076,-0Z" style="fill:rgb(254,255,254);fill-rule:nonzero;"/>
            </g>
            <g transform="matrix(47.632,0,0,47.632,401.111,785.3)">
                <path d="M0.412,-0.281L0.412,-0.365L0.715,-0.365L0.715,-0.1C0.669,-0.063 0.621,-0.035 0.571,-0.016C0.522,0.003 0.471,0.012 0.419,0.012C0.349,0.012 0.285,-0.003 0.227,-0.033C0.17,-0.063 0.126,-0.107 0.097,-0.164C0.068,-0.221 0.053,-0.284 0.053,-0.354C0.053,-0.424 0.068,-0.489 0.097,-0.55C0.126,-0.61 0.168,-0.655 0.223,-0.684C0.277,-0.713 0.34,-0.728 0.412,-0.728C0.463,-0.728 0.51,-0.72 0.552,-0.703C0.594,-0.686 0.627,-0.663 0.65,-0.633C0.674,-0.603 0.692,-0.564 0.705,-0.516L0.619,-0.492C0.608,-0.529 0.595,-0.557 0.579,-0.578C0.563,-0.599 0.54,-0.616 0.511,-0.628C0.481,-0.641 0.448,-0.647 0.412,-0.647C0.369,-0.647 0.331,-0.64 0.3,-0.627C0.268,-0.614 0.243,-0.597 0.223,-0.575C0.204,-0.554 0.189,-0.53 0.178,-0.504C0.16,-0.46 0.151,-0.412 0.151,-0.36C0.151,-0.297 0.162,-0.243 0.184,-0.2C0.206,-0.157 0.238,-0.125 0.28,-0.104C0.322,-0.084 0.366,-0.073 0.414,-0.073C0.455,-0.073 0.495,-0.081 0.534,-0.097C0.573,-0.113 0.602,-0.13 0.623,-0.147L0.623,-0.281L0.412,-0.281Z" style="fill:rgb(254,255,254);fill-rule:nonzero;"/>
            </g>
            <g transform="matrix(47.632,0,0,47.632,439.836,785.3)">
                <path d="M0.073,-0L0.073,-0.716L0.168,-0.716L0.168,-0.084L0.521,-0.084L0.521,-0L0.073,-0Z" style="fill:rgb(254,255,254);fill-rule:nonzero;"/>
            </g>
            <g transform="matrix(47.632,0,0,47.632,468.001,785.3)">
                <path d="M0.079,-0L0.079,-0.716L0.597,-0.716L0.597,-0.631L0.174,-0.631L0.174,-0.412L0.57,-0.412L0.57,-0.328L0.174,-0.328L0.174,-0.084L0.613,-0.084L0.613,-0L0.079,-0Z" style="fill:rgb(254,255,254);fill-rule:nonzero;"/>
            </g>
            <g transform="matrix(67.9728,0,0,67.9728,317.043,851.985)">
                <rect x="0.068" y="-0.716" width="0.145" height="0.716" style="fill:rgb(254,255,254);fill-rule:nonzero;"/>
            </g>
            <g transform="matrix(67.9728,0,0,67.9728,338.318,851.985)">
                <path d="M0.071,-0L0.071,-0.716L0.287,-0.716L0.417,-0.228L0.545,-0.716L0.762,-0.716L0.762,-0L0.628,-0L0.628,-0.563L0.486,-0L0.347,-0L0.205,-0.563L0.205,-0L0.071,-0Z" style="fill:rgb(254,255,254);fill-rule:nonzero;"/>
            </g>
            <g transform="matrix(67.9728,0,0,67.9728,397.329,851.985)">
                <path d="M0.718,-0L0.561,-0L0.499,-0.163L0.212,-0.163L0.153,-0L0,-0L0.279,-0.716L0.432,-0.716L0.718,-0ZM0.452,-0.283L0.354,-0.549L0.257,-0.283L0.452,-0.283Z" style="fill:rgb(254,255,254);fill-rule:nonzero;"/>
            </g>
            <g transform="matrix(67.9728,0,0,67.9728,448.807,851.985)">
                <path d="M0.406,-0.263L0.406,-0.384L0.717,-0.384L0.717,-0.099C0.687,-0.069 0.643,-0.044 0.586,-0.021C0.528,0.001 0.47,0.012 0.411,0.012C0.336,0.012 0.271,-0.003 0.215,-0.035C0.16,-0.066 0.118,-0.111 0.09,-0.17C0.062,-0.228 0.048,-0.292 0.048,-0.36C0.048,-0.435 0.063,-0.501 0.095,-0.559C0.126,-0.617 0.172,-0.661 0.232,-0.692C0.278,-0.716 0.335,-0.728 0.403,-0.728C0.492,-0.728 0.562,-0.709 0.612,-0.672C0.662,-0.635 0.694,-0.583 0.708,-0.518L0.564,-0.491C0.554,-0.526 0.535,-0.554 0.508,-0.574C0.48,-0.594 0.445,-0.604 0.403,-0.604C0.34,-0.604 0.29,-0.584 0.253,-0.544C0.215,-0.504 0.197,-0.445 0.197,-0.366C0.197,-0.281 0.216,-0.218 0.253,-0.175C0.291,-0.133 0.341,-0.111 0.402,-0.111C0.432,-0.111 0.462,-0.117 0.493,-0.129C0.523,-0.141 0.549,-0.155 0.571,-0.172L0.571,-0.263L0.406,-0.263Z" style="fill:rgb(254,255,254);fill-rule:nonzero;"/>
            </g>
            <g transform="matrix(67.9728,0,0,67.9728,504.068,851.985)">
                <path d="M0.073,-0L0.073,-0.716L0.604,-0.716L0.604,-0.595L0.217,-0.595L0.217,-0.436L0.577,-0.436L0.577,-0.315L0.217,-0.315L0.217,-0.121L0.617,-0.121L0.617,-0L0.073,-0Z" style="fill:rgb(254,255,254);fill-rule:nonzero;"/>
            </g>
        </g>
    </g>
</svg>
