<?xml version="1.0" encoding="UTF-8" standalone="no"?>
<!DOCTYPE svg PUBLIC "-//W3C//DTD SVG 1.1//EN" "http://www.w3.org/Graphics/SVG/1.1/DTD/svg11.dtd">
<svg width="100%" height="100%" viewBox="0 0 237 237" version="1.1" xmlns="http://www.w3.org/2000/svg" xmlns:xlink="http://www.w3.org/1999/xlink" xml:space="preserve" xmlns:serif="http://www.serif.com/" style="fill-rule:evenodd;clip-rule:evenodd;stroke-linecap:square;">
    <g transform="matrix(1,0,0,1,-259.843,-605.232)">
        <g transform="matrix(0.526316,0,0,0.526316,123.083,244.685)">
            <rect x="259.843" y="685.039" width="448.819" height="448.819" style="fill:none;"/>
        </g>
        <g transform="matrix(1,0,0,1,2,-2)">
            <path d="M413.386,694.827C413.386,689.425 409,685.039 403.599,685.039L281.441,685.039C276.039,685.039 271.654,689.425 271.654,694.827L271.654,816.984C271.654,822.386 276.039,826.772 281.441,826.772L403.599,826.772C409,826.772 413.386,822.386 413.386,816.984L413.386,694.827Z" style="fill:rgb(255,202,58);fill-opacity:0.2;"/>
        </g>
        <g transform="matrix(0.337664,-0.337664,0.337664,0.337664,-315.453,838.882)">
            <g transform="matrix(13.2758,0,0,13.2758,918.983,692.642)">
                <path d="M13.848,13.317L9.505,18.28C9.125,18.714 8.576,18.963 8,18.963C7.424,18.963 6.875,18.714 6.495,18.28L2.152,13.317C1.495,12.566 1.495,11.434 2.152,10.683L6.495,5.72C6.875,5.286 7.424,5.037 8,5.037C8.576,5.037 9.125,5.286 9.505,5.72L13.848,10.683C14.505,11.434 14.505,12.566 13.848,13.317Z" style="fill:none;fill-rule:nonzero;stroke:rgb(255,202,58);stroke-width:0.3px;"/>
            </g>
            <g transform="matrix(13.2758,0,0,13.2758,918.983,692.642)">
                <path d="M13,19L17.884,13.302C18.524,12.556 18.524,11.444 17.884,10.698L13,5" style="fill:none;fill-rule:nonzero;stroke:rgb(255,202,58);stroke-width:0.3px;"/>
            </g>
            <g transform="matrix(13.2758,0,0,13.2758,918.983,692.642)">
                <path d="M17,19L21.884,13.302C22.524,12.556 22.524,11.444 21.884,10.698L17,5" style="fill:none;fill-rule:nonzero;stroke:rgb(255,202,58);stroke-width:0.3px;"/>
            </g>
        </g>
        <g transform="matrix(0.437381,0,0,0.437381,143.461,297.465)">
            <g transform="matrix(47.632,0,0,47.632,316.685,785.3)">
                <rect x="0.093" y="-0.716" width="0.095" height="0.716" style="fill:rgb(254,255,254);fill-rule:nonzero;"/>
            </g>
            <g transform="matrix(47.632,0,0,47.632,331.594,785.3)">
                <path d="M0.074,-0L0.074,-0.716L0.217,-0.716L0.386,-0.209C0.402,-0.162 0.413,-0.126 0.42,-0.103C0.429,-0.129 0.441,-0.167 0.458,-0.218L0.63,-0.716L0.757,-0.716L0.757,-0L0.666,-0L0.666,-0.599L0.458,-0L0.373,-0L0.166,-0.609L0.166,-0L0.074,-0Z" style="fill:rgb(254,255,254);fill-rule:nonzero;"/>
            </g>
            <g transform="matrix(47.632,0,0,47.632,372.946,785.3)">
                <path d="M-0.001,-0L0.273,-0.716L0.375,-0.716L0.668,-0L0.561,-0L0.477,-0.217L0.178,-0.217L0.099,-0L-0.001,-0ZM0.205,-0.294L0.448,-0.294L0.373,-0.492C0.35,-0.552 0.333,-0.602 0.322,-0.641C0.313,-0.595 0.3,-0.549 0.284,-0.504L0.205,-0.294Z" style="fill:rgb(254,255,254);fill-rule:nonzero;"/>
            </g>
            <g transform="matrix(47.632,0,0,47.632,406.391,785.3)">
                <path d="M0.412,-0.281L0.412,-0.365L0.715,-0.365L0.715,-0.1C0.669,-0.063 0.621,-0.035 0.571,-0.016C0.522,0.003 0.471,0.012 0.419,0.012C0.349,0.012 0.285,-0.003 0.227,-0.033C0.17,-0.063 0.126,-0.107 0.097,-0.164C0.068,-0.221 0.053,-0.284 0.053,-0.354C0.053,-0.424 0.068,-0.489 0.097,-0.55C0.126,-0.61 0.168,-0.655 0.223,-0.684C0.277,-0.713 0.34,-0.728 0.412,-0.728C0.463,-0.728 0.51,-0.72 0.552,-0.703C0.594,-0.686 0.627,-0.663 0.65,-0.633C0.674,-0.603 0.692,-0.564 0.705,-0.516L0.619,-0.492C0.608,-0.529 0.595,-0.557 0.579,-0.578C0.563,-0.599 0.54,-0.616 0.511,-0.628C0.481,-0.641 0.448,-0.647 0.412,-0.647C0.369,-0.647 0.331,-0.64 0.3,-0.627C0.268,-0.614 0.243,-0.597 0.223,-0.575C0.204,-0.554 0.189,-0.53 0.178,-0.504C0.16,-0.46 0.151,-0.412 0.151,-0.36C0.151,-0.297 0.162,-0.243 0.184,-0.2C0.206,-0.157 0.238,-0.125 0.28,-0.104C0.322,-0.084 0.366,-0.073 0.414,-0.073C0.455,-0.073 0.495,-0.081 0.534,-0.097C0.573,-0.113 0.602,-0.13 0.623,-0.147L0.623,-0.281L0.412,-0.281Z" style="fill:rgb(254,255,254);fill-rule:nonzero;"/>
            </g>
            <g transform="matrix(47.632,0,0,47.632,445.115,785.3)">
                <path d="M0.079,-0L0.079,-0.716L0.597,-0.716L0.597,-0.631L0.174,-0.631L0.174,-0.412L0.57,-0.412L0.57,-0.328L0.174,-0.328L0.174,-0.084L0.613,-0.084L0.613,-0L0.079,-0Z" style="fill:rgb(254,255,254);fill-rule:nonzero;"/>
            </g>
            <g transform="matrix(67.9728,0,0,67.9728,317.043,851.985)">
                <path d="M0.073,-0L0.073,-0.716L0.604,-0.716L0.604,-0.595L0.217,-0.595L0.217,-0.436L0.577,-0.436L0.577,-0.315L0.217,-0.315L0.217,-0.121L0.617,-0.121L0.617,-0L0.073,-0Z" style="fill:rgb(254,255,254);fill-rule:nonzero;"/>
            </g>
            <g transform="matrix(67.9728,0,0,67.9728,364.77,851.985)">
                <path d="M0.074,-0L0.074,-0.716L0.564,-0.716L0.564,-0.595L0.218,-0.595L0.218,-0.425L0.517,-0.425L0.517,-0.304L0.218,-0.304L0.218,-0L0.074,-0Z" style="fill:rgb(254,255,254);fill-rule:nonzero;"/>
            </g>
            <g transform="matrix(67.9728,0,0,67.9728,408.68,851.985)">
                <path d="M0.074,-0L0.074,-0.716L0.564,-0.716L0.564,-0.595L0.218,-0.595L0.218,-0.425L0.517,-0.425L0.517,-0.304L0.218,-0.304L0.218,-0L0.074,-0Z" style="fill:rgb(254,255,254);fill-rule:nonzero;"/>
            </g>
            <g transform="matrix(67.9728,0,0,67.9728,452.59,851.985)">
                <path d="M0.073,-0L0.073,-0.716L0.604,-0.716L0.604,-0.595L0.217,-0.595L0.217,-0.436L0.577,-0.436L0.577,-0.315L0.217,-0.315L0.217,-0.121L0.617,-0.121L0.617,-0L0.073,-0Z" style="fill:rgb(254,255,254);fill-rule:nonzero;"/>
            </g>
            <g transform="matrix(67.9728,0,0,67.9728,500.317,851.985)">
                <path d="M0.531,-0.263L0.671,-0.219C0.649,-0.141 0.614,-0.083 0.564,-0.045C0.514,-0.007 0.45,0.012 0.374,0.012C0.278,0.012 0.2,-0.02 0.139,-0.085C0.078,-0.15 0.047,-0.239 0.047,-0.352C0.047,-0.471 0.078,-0.563 0.14,-0.629C0.201,-0.695 0.282,-0.728 0.382,-0.728C0.47,-0.728 0.541,-0.702 0.596,-0.65C0.628,-0.62 0.653,-0.576 0.669,-0.519L0.526,-0.484C0.517,-0.521 0.5,-0.551 0.473,-0.572C0.446,-0.594 0.413,-0.604 0.375,-0.604C0.322,-0.604 0.279,-0.585 0.246,-0.547C0.213,-0.509 0.196,-0.448 0.196,-0.362C0.196,-0.272 0.213,-0.207 0.245,-0.169C0.278,-0.131 0.32,-0.111 0.372,-0.111C0.41,-0.111 0.444,-0.124 0.471,-0.148C0.499,-0.172 0.519,-0.211 0.531,-0.263Z" style="fill:rgb(254,255,254);fill-rule:nonzero;"/>
            </g>
            <g transform="matrix(67.9728,0,0,67.9728,551.795,851.985)">
                <path d="M0.234,-0L0.234,-0.595L0.021,-0.595L0.021,-0.716L0.59,-0.716L0.59,-0.595L0.378,-0.595L0.378,-0L0.234,-0Z" style="fill:rgb(254,255,254);fill-rule:nonzero;"/>
            </g>
            <g transform="matrix(67.9728,0,0,67.9728,595.705,851.985)">
                <path d="M0.036,-0.233L0.177,-0.247C0.185,-0.199 0.202,-0.165 0.228,-0.143C0.254,-0.12 0.289,-0.109 0.333,-0.109C0.38,-0.109 0.415,-0.119 0.438,-0.139C0.462,-0.159 0.474,-0.182 0.474,-0.208C0.474,-0.225 0.469,-0.239 0.459,-0.251C0.449,-0.263 0.431,-0.273 0.407,-0.282C0.39,-0.288 0.351,-0.299 0.291,-0.313C0.214,-0.333 0.159,-0.356 0.128,-0.384C0.084,-0.424 0.062,-0.472 0.062,-0.528C0.062,-0.565 0.072,-0.599 0.093,-0.631C0.114,-0.662 0.143,-0.687 0.182,-0.703C0.221,-0.72 0.268,-0.728 0.323,-0.728C0.413,-0.728 0.481,-0.708 0.526,-0.669C0.572,-0.63 0.595,-0.577 0.598,-0.511L0.453,-0.505C0.447,-0.542 0.434,-0.568 0.413,-0.584C0.393,-0.6 0.362,-0.608 0.322,-0.608C0.28,-0.608 0.247,-0.6 0.223,-0.583C0.208,-0.571 0.2,-0.557 0.2,-0.538C0.2,-0.521 0.207,-0.507 0.222,-0.495C0.24,-0.479 0.284,-0.463 0.354,-0.447C0.425,-0.43 0.477,-0.413 0.51,-0.395C0.544,-0.378 0.571,-0.353 0.59,-0.323C0.609,-0.292 0.618,-0.254 0.618,-0.208C0.618,-0.167 0.607,-0.129 0.584,-0.093C0.561,-0.057 0.529,-0.031 0.487,-0.013C0.446,0.004 0.394,0.013 0.332,0.013C0.241,0.013 0.172,-0.008 0.123,-0.05C0.075,-0.092 0.046,-0.153 0.036,-0.233Z" style="fill:rgb(254,255,254);fill-rule:nonzero;"/>
            </g>
        </g>
    </g>
</svg>
