<?xml version="1.0" encoding="UTF-8" standalone="no"?>
<!DOCTYPE svg PUBLIC "-//W3C//DTD SVG 1.1//EN" "http://www.w3.org/Graphics/SVG/1.1/DTD/svg11.dtd">
<svg width="100%" height="100%" viewBox="0 0 237 237" version="1.1" xmlns="http://www.w3.org/2000/svg" xmlns:xlink="http://www.w3.org/1999/xlink" xml:space="preserve" xmlns:serif="http://www.serif.com/" style="fill-rule:evenodd;clip-rule:evenodd;stroke-linecap:round;stroke-linejoin:round;">
    <g transform="matrix(1,0,0,1,-259.843,-605.232)">
        <g transform="matrix(0.526316,0,0,0.526316,123.083,244.685)">
            <rect x="259.843" y="685.039" width="448.819" height="448.819" style="fill:none;"/>
        </g>
        <g transform="matrix(1,0,0,1,2,-2)">
            <path d="M413.386,694.827C413.386,689.425 409,685.039 403.599,685.039L281.441,685.039C276.039,685.039 271.654,689.425 271.654,694.827L271.654,816.984C271.654,822.386 276.039,826.772 281.441,826.772L403.599,826.772C409,826.772 413.386,822.386 413.386,816.984L413.386,694.827Z" style="fill:rgb(255,202,58);fill-opacity:0.2;"/>
        </g>
        <g transform="matrix(5.79691,0,0,5.79691,267.779,687.196)">
            <path d="M9,12L15,12M20.777,13.345L13.48,21.372C13.101,21.789 12.563,22.027 12,22.027C11.437,22.027 10.899,21.789 10.52,21.372L3.223,13.345C2.533,12.586 2.533,11.414 3.223,10.655L10.52,2.628C10.899,2.211 11.437,1.973 12,1.973C12.563,1.973 13.101,2.211 13.48,2.628L20.777,10.655C21.467,11.414 21.467,12.586 20.777,13.345Z" style="fill:none;fill-rule:nonzero;stroke:rgb(252,186,15);stroke-width:0.39px;"/>
        </g>
        <g transform="matrix(0.437381,0,0,0.437381,143.461,297.465)">
            <g transform="matrix(47.632,0,0,47.632,316.685,785.3)">
                <path d="M0.073,-0L0.073,-0.716L0.168,-0.716L0.168,-0.361L0.523,-0.716L0.652,-0.716L0.352,-0.426L0.665,-0L0.54,-0L0.285,-0.362L0.168,-0.248L0.168,-0L0.073,-0Z" style="fill:rgb(254,255,254);fill-rule:nonzero;"/>
            </g>
            <g transform="matrix(47.632,0,0,47.632,350.13,785.3)">
                <path d="M0.076,-0L0.076,-0.716L0.173,-0.716L0.549,-0.154L0.549,-0.716L0.64,-0.716L0.64,-0L0.543,-0L0.167,-0.563L0.167,-0L0.076,-0Z" style="fill:rgb(254,255,254);fill-rule:nonzero;"/>
            </g>
            <g transform="matrix(47.632,0,0,47.632,386.203,785.3)">
                <path d="M0.048,-0.349C0.048,-0.467 0.08,-0.56 0.144,-0.628C0.208,-0.695 0.29,-0.729 0.391,-0.729C0.457,-0.729 0.517,-0.713 0.57,-0.681C0.623,-0.65 0.663,-0.606 0.691,-0.549C0.719,-0.493 0.733,-0.429 0.733,-0.357C0.733,-0.284 0.718,-0.219 0.689,-0.162C0.66,-0.105 0.618,-0.061 0.564,-0.032C0.511,-0.003 0.453,0.012 0.391,0.012C0.323,0.012 0.263,-0.004 0.21,-0.037C0.157,-0.069 0.117,-0.114 0.089,-0.17C0.062,-0.226 0.048,-0.286 0.048,-0.349ZM0.146,-0.347C0.146,-0.261 0.169,-0.193 0.216,-0.143C0.262,-0.094 0.32,-0.069 0.39,-0.069C0.461,-0.069 0.52,-0.094 0.566,-0.144C0.612,-0.194 0.635,-0.265 0.635,-0.357C0.635,-0.416 0.625,-0.467 0.606,-0.51C0.586,-0.553 0.557,-0.587 0.519,-0.611C0.481,-0.635 0.439,-0.647 0.392,-0.647C0.325,-0.647 0.267,-0.624 0.219,-0.578C0.17,-0.532 0.146,-0.455 0.146,-0.347Z" style="fill:rgb(254,255,254);fill-rule:nonzero;"/>
            </g>
            <g transform="matrix(47.632,0,0,47.632,424.927,785.3)">
                <path d="M0.588,-0.251L0.683,-0.227C0.663,-0.149 0.627,-0.09 0.575,-0.049C0.524,-0.008 0.461,0.012 0.386,0.012C0.309,0.012 0.246,-0.003 0.198,-0.035C0.15,-0.066 0.113,-0.112 0.088,-0.171C0.062,-0.231 0.05,-0.295 0.05,-0.363C0.05,-0.438 0.064,-0.503 0.093,-0.558C0.121,-0.614 0.162,-0.656 0.214,-0.685C0.267,-0.714 0.325,-0.728 0.388,-0.728C0.459,-0.728 0.52,-0.71 0.568,-0.673C0.617,-0.637 0.651,-0.586 0.67,-0.52L0.577,-0.498C0.561,-0.55 0.536,-0.588 0.505,-0.611C0.473,-0.635 0.434,-0.647 0.386,-0.647C0.331,-0.647 0.285,-0.634 0.248,-0.607C0.211,-0.581 0.185,-0.546 0.17,-0.501C0.155,-0.457 0.147,-0.411 0.147,-0.364C0.147,-0.303 0.156,-0.25 0.174,-0.204C0.192,-0.159 0.219,-0.125 0.257,-0.103C0.294,-0.08 0.335,-0.069 0.378,-0.069C0.431,-0.069 0.476,-0.084 0.513,-0.115C0.55,-0.145 0.575,-0.191 0.588,-0.251Z" style="fill:rgb(254,255,254);fill-rule:nonzero;"/>
            </g>
            <g transform="matrix(47.632,0,0,47.632,461,785.3)">
                <path d="M0.073,-0L0.073,-0.716L0.168,-0.716L0.168,-0.361L0.523,-0.716L0.652,-0.716L0.352,-0.426L0.665,-0L0.54,-0L0.285,-0.362L0.168,-0.248L0.168,-0L0.073,-0Z" style="fill:rgb(254,255,254);fill-rule:nonzero;"/>
            </g>
            <g transform="matrix(47.632,0,0,47.632,494.445,785.3)">
                <path d="M0.048,-0.349C0.048,-0.467 0.08,-0.56 0.144,-0.628C0.208,-0.695 0.29,-0.729 0.391,-0.729C0.457,-0.729 0.517,-0.713 0.57,-0.681C0.623,-0.65 0.663,-0.606 0.691,-0.549C0.719,-0.493 0.733,-0.429 0.733,-0.357C0.733,-0.284 0.718,-0.219 0.689,-0.162C0.66,-0.105 0.618,-0.061 0.564,-0.032C0.511,-0.003 0.453,0.012 0.391,0.012C0.323,0.012 0.263,-0.004 0.21,-0.037C0.157,-0.069 0.117,-0.114 0.089,-0.17C0.062,-0.226 0.048,-0.286 0.048,-0.349ZM0.146,-0.347C0.146,-0.261 0.169,-0.193 0.216,-0.143C0.262,-0.094 0.32,-0.069 0.39,-0.069C0.461,-0.069 0.52,-0.094 0.566,-0.144C0.612,-0.194 0.635,-0.265 0.635,-0.357C0.635,-0.416 0.625,-0.467 0.606,-0.51C0.586,-0.553 0.557,-0.587 0.519,-0.611C0.481,-0.635 0.439,-0.647 0.392,-0.647C0.325,-0.647 0.267,-0.624 0.219,-0.578C0.17,-0.532 0.146,-0.455 0.146,-0.347Z" style="fill:rgb(254,255,254);fill-rule:nonzero;"/>
            </g>
            <g transform="matrix(47.632,0,0,47.632,533.169,785.3)">
                <path d="M0.547,-0.716L0.642,-0.716L0.642,-0.302C0.642,-0.23 0.633,-0.173 0.617,-0.131C0.601,-0.089 0.572,-0.054 0.529,-0.028C0.487,-0.001 0.431,0.012 0.362,0.012C0.295,0.012 0.24,0.001 0.197,-0.022C0.155,-0.046 0.124,-0.079 0.106,-0.123C0.088,-0.167 0.079,-0.226 0.079,-0.302L0.079,-0.716L0.173,-0.716L0.173,-0.303C0.173,-0.241 0.179,-0.195 0.191,-0.165C0.202,-0.136 0.222,-0.113 0.25,-0.097C0.278,-0.081 0.313,-0.073 0.354,-0.073C0.423,-0.073 0.473,-0.089 0.502,-0.121C0.532,-0.152 0.547,-0.213 0.547,-0.303L0.547,-0.716Z" style="fill:rgb(254,255,254);fill-rule:nonzero;"/>
            </g>
            <g transform="matrix(47.632,0,0,47.632,569.242,785.3)">
                <path d="M0.259,-0L0.259,-0.631L0.023,-0.631L0.023,-0.716L0.591,-0.716L0.591,-0.631L0.354,-0.631L0.354,-0L0.259,-0Z" style="fill:rgb(254,255,254);fill-rule:nonzero;"/>
            </g>
            <g transform="matrix(67.9728,0,0,67.9728,317.043,851.985)">
                <rect x="0.068" y="-0.716" width="0.145" height="0.716" style="fill:rgb(254,255,254);fill-rule:nonzero;"/>
            </g>
            <g transform="matrix(67.9728,0,0,67.9728,338.318,851.985)">
                <path d="M0.071,-0L0.071,-0.716L0.287,-0.716L0.417,-0.228L0.545,-0.716L0.762,-0.716L0.762,-0L0.628,-0L0.628,-0.563L0.486,-0L0.347,-0L0.205,-0.563L0.205,-0L0.071,-0Z" style="fill:rgb(254,255,254);fill-rule:nonzero;"/>
            </g>
            <g transform="matrix(67.9728,0,0,67.9728,397.329,851.985)">
                <path d="M0.718,-0L0.561,-0L0.499,-0.163L0.212,-0.163L0.153,-0L0,-0L0.279,-0.716L0.432,-0.716L0.718,-0ZM0.452,-0.283L0.354,-0.549L0.257,-0.283L0.452,-0.283Z" style="fill:rgb(254,255,254);fill-rule:nonzero;"/>
            </g>
            <g transform="matrix(67.9728,0,0,67.9728,448.807,851.985)">
                <path d="M0.406,-0.263L0.406,-0.384L0.717,-0.384L0.717,-0.099C0.687,-0.069 0.643,-0.044 0.586,-0.021C0.528,0.001 0.47,0.012 0.411,0.012C0.336,0.012 0.271,-0.003 0.215,-0.035C0.16,-0.066 0.118,-0.111 0.09,-0.17C0.062,-0.228 0.048,-0.292 0.048,-0.36C0.048,-0.435 0.063,-0.501 0.095,-0.559C0.126,-0.617 0.172,-0.661 0.232,-0.692C0.278,-0.716 0.335,-0.728 0.403,-0.728C0.492,-0.728 0.562,-0.709 0.612,-0.672C0.662,-0.635 0.694,-0.583 0.708,-0.518L0.564,-0.491C0.554,-0.526 0.535,-0.554 0.508,-0.574C0.48,-0.594 0.445,-0.604 0.403,-0.604C0.34,-0.604 0.29,-0.584 0.253,-0.544C0.215,-0.504 0.197,-0.445 0.197,-0.366C0.197,-0.281 0.216,-0.218 0.253,-0.175C0.291,-0.133 0.341,-0.111 0.402,-0.111C0.432,-0.111 0.462,-0.117 0.493,-0.129C0.523,-0.141 0.549,-0.155 0.571,-0.172L0.571,-0.263L0.406,-0.263Z" style="fill:rgb(254,255,254);fill-rule:nonzero;"/>
            </g>
            <g transform="matrix(67.9728,0,0,67.9728,504.068,851.985)">
                <path d="M0.073,-0L0.073,-0.716L0.604,-0.716L0.604,-0.595L0.217,-0.595L0.217,-0.436L0.577,-0.436L0.577,-0.315L0.217,-0.315L0.217,-0.121L0.617,-0.121L0.617,-0L0.073,-0Z" style="fill:rgb(254,255,254);fill-rule:nonzero;"/>
            </g>
        </g>
    </g>
</svg>
