<?xml version="1.0" encoding="UTF-8"?>
<svg id="Layer_2" data-name="Layer 2" xmlns="http://www.w3.org/2000/svg" viewBox="0 0 361.59 361.66">
  <defs>
    <style>
      .cls-1 {
        fill: #fff;
      }
    </style>
  </defs>
  <g id="Layer_3" data-name="Layer 3">
    <path class="cls-1" d="M180.74,361.63c-39.99,0-79.98,.05-119.97-.02-29.46-.05-53.74-19.91-59.6-48.73-.79-3.89-1.1-7.94-1.1-11.91C0,220.85-.02,140.73,.03,60.61,.05,26.83,26.68,.1,60.46,.06c80.23-.08,160.47-.09,240.7,0,33.61,.04,60.3,26.63,60.35,60.24,.12,80.37,.12,160.74,0,241.12-.05,33.57-26.79,60.1-60.41,60.19-40.12,.1-80.23,.02-120.35,.02ZM24.05,180.65c0,39.76-.02,79.51,0,119.27,.02,21.97,15.57,37.65,37.48,37.66,79.5,.04,158.99,.03,238.49-.04,3.58,0,7.28-.4,10.73-1.33,16.41-4.42,26.74-18.51,26.75-36.31,.02-79.14,.02-158.27,0-237.41,0-23.14-15.37-38.41-38.62-38.41-78.75,0-157.49,0-236.24,0-23.4,0-38.59,15.29-38.59,38.81,0,39.26,0,78.51,0,117.77Z"/>
    <path class="cls-1" d="M181.47,191.04c-14.67,14.73-28.41,28.55-42.17,42.34-16.15,16.18-32.33,32.34-48.5,48.5-.79,.79-1.56,1.63-2.43,2.33-3.25,2.58-7.41,2.37-10.18-.47-2.75-2.82-2.85-6.98-.2-10.2,.63-.77,1.38-1.44,2.09-2.15,29.05-29.08,58.11-58.15,87.16-87.23,.95-.96,1.86-1.96,2.95-3.1-1.06-1.14-1.96-2.14-2.91-3.09-29.05-29.08-58.13-58.13-87.1-87.29-1.7-1.72-2.95-4.28-3.49-6.65-.68-2.96,1.06-5.76,3.84-6.51,2.38-.64,5.25-.11,7.73,.56,1.38,.37,2.43,2.06,3.57,3.21,28.81,28.79,57.62,57.59,86.43,86.38,.79,.79,1.62,1.54,2.73,2.58,1.01-.95,2.01-1.83,2.94-2.77,28.97-28.98,57.94-57.97,86.91-86.95,1.06-1.06,2.09-2.18,3.3-3.05,3.04-2.2,6.98-1.83,9.59,.74,2.62,2.59,3.02,6.51,.82,9.57-.94,1.31-2.13,2.44-3.28,3.59-28.79,28.81-57.58,57.62-86.4,86.41-.96,.96-2.18,1.67-3.58,2.73,1.48,1.56,2.38,2.54,3.32,3.48,29.07,29.07,58.14,58.13,87.2,87.2,.97,.97,1.99,1.92,2.78,3.03,2.16,3.04,1.77,7.01-.82,9.59-2.61,2.59-6.53,2.95-9.58,.75-1.11-.79-2.06-1.82-3.03-2.78-28.99-28.96-57.98-57.93-86.94-86.92-.96-.96-1.61-2.22-2.76-3.83Z"/>
  </g>
</svg>