<?xml version="1.0" encoding="UTF-8"?>
<svg id="Layer_2" data-name="Layer 2" xmlns="http://www.w3.org/2000/svg" viewBox="0 0 361.59 361.66">
  <defs>
    <style>
      .cls-1 {
        fill: #fff;
      }
    </style>
  </defs>
  <g id="Layer_3" data-name="Layer 3">
    <path class="cls-1" d="M180.74,361.63c-39.99,0-79.98,.05-119.97-.02-29.46-.05-53.74-19.91-59.6-48.73-.79-3.89-1.1-7.94-1.1-11.91C0,220.85-.02,140.73,.03,60.61,.05,26.83,26.68,.1,60.46,.06c80.23-.08,160.47-.09,240.7,0,33.61,.04,60.3,26.63,60.35,60.24,.12,80.37,.12,160.74,0,241.12-.05,33.57-26.79,60.1-60.41,60.19-40.12,.1-80.23,.02-120.35,.02ZM24.05,180.65c0,39.76-.02,79.51,0,119.27,.02,21.97,15.57,37.65,37.48,37.66,79.5,.04,158.99,.03,238.49-.04,3.58,0,7.28-.4,10.73-1.33,16.41-4.42,26.74-18.51,26.75-36.31,.02-79.14,.02-158.27,0-237.41,0-23.14-15.37-38.41-38.62-38.41-78.75,0-157.49,0-236.24,0-23.4,0-38.59,15.29-38.59,38.81,0,39.26,0,78.51,0,117.77Z"/>
    <path class="cls-1" d="M265.34,78.85c-7.24-1.53-14.03-2.94-20.82-4.4-1.95-.42-3.94-.77-5.79-1.48-5.72-2.17-8.79-8.47-7.17-14.38,1.6-5.82,7.62-9.8,13.58-8.59,15.65,3.18,31.27,6.47,46.88,9.85,5.12,1.11,8.19,4.49,9.35,9.61,3.47,15.21,6.99,30.4,10.41,45.61,1.47,6.54-2.55,12.98-8.78,14.41-6.66,1.52-12.94-2.23-14.63-9-1.75-7.02-3.24-14.1-4.86-21.16-.22-.96-.51-1.91-.77-2.87-.46-.4-.92-.8-1.38-1.2-.61,1.22-.96,2.68-1.86,3.61-20.26,20.73-40.54,41.44-60.98,61.99-2.08,2.09-5.02,3.87-7.86,4.54-5.22,1.23-10.11-1.59-12.48-6.18-2.43-4.71-1.68-10.04,2.32-14.14,11.24-11.55,22.57-23.02,33.86-34.51,9.37-9.54,18.74-19.07,28.1-28.61,.86-.88,1.67-1.8,2.87-3.1Z"/>
    <path class="cls-1" d="M103.74,275.02c8.79,1.82,16.48,3.42,24.16,5.01,7.65,1.59,11.9,7.52,10.47,14.6-1.35,6.65-7.69,10.41-15.28,8.89-14.8-2.98-29.57-6.09-44.36-9.07-5.8-1.17-9.17-4.55-10.48-10.29-3.42-14.96-6.99-29.89-10.41-44.85-1.52-6.65,2.26-13.05,8.44-14.62,6.7-1.7,13.2,2.17,14.92,9.06,1.72,6.9,3.24,13.85,4.86,20.77,.25,1.06,.58,2.11,.98,3.55,1.25-1.23,2.23-2.15,3.18-3.12,20.22-20.77,40.47-41.51,60.63-62.33,3.62-3.74,7.76-5.49,12.81-4.2,8.23,2.1,11.56,12.22,6.32,18.93-.84,1.08-1.85,2.03-2.81,3.01-19.87,20.42-39.74,40.83-59.62,61.23-.95,.98-2.02,1.83-3.81,3.43Z"/>
  </g>
</svg>