<?xml version="1.0" encoding="UTF-8"?>
<svg id="Layer_2" data-name="Layer 2" xmlns="http://www.w3.org/2000/svg" viewBox="0 0 361.94 361.8">
  <defs>
    <style>
      .cls-1 {
        fill: #fff;
      }
    </style>
  </defs>
  <g id="Layer_3" data-name="Layer 3">
    <path class="cls-1" d="M337.5,182.48c0,39.19,0,78.38,0,117.57,0,17.8-10.33,31.89-26.75,36.31-3.45,.93-7.14,1.33-10.73,1.33-79.5,.07-158.99,.08-238.49,.04-21.91-.01-37.47-15.69-37.48-37.66-.03-39.76,0-79.51,0-119.27,0-39.26,0-78.51,0-117.77,0-23.51,15.2-38.81,38.59-38.81,37.46,0,74.91,0,112.37,0-.31-8.02,.9-16.04,.26-24.05-38.27,0-76.54,0-114.82,.04C26.68,.24,.05,26.97,.03,60.75-.02,140.88,0,221,.06,301.12c0,3.97,.31,8.02,1.1,11.91,5.86,28.82,30.14,48.67,59.6,48.73,39.99,.07,79.98,.02,119.97,.02s80.23,.08,120.35-.02c33.62-.09,60.36-26.62,60.41-60.19,.06-39.76,.08-79.51,.08-119.27-8.03,.04-16.05,.18-24.08,.18Z"/>
    <path class="cls-1" d="M195.98,143.56c.95-1.16,1.81-2.41,2.86-3.47C243.41,95.43,288.01,50.8,332.55,6.1c4.22-4.24,8.93-6.7,15.03-5.98,12.25,1.45,18.52,15.56,11.3,25.56-1.09,1.51-2.45,2.83-3.77,4.15-44.48,44.58-88.96,89.15-133.48,133.68-1.01,1.01-2.58,1.47-3.88,2.19,.42,.56,.83,1.11,1.25,1.67,1.32,0,2.64,0,3.96,0,18.12-.01,36.23-.09,54.35,0,9.86,.04,16.86,6.88,16.91,16.2,.05,8.9-6.69,16.26-15.63,16.3-33.61,.16-67.22,.18-100.83,.07-8.76-.03-15.65-7.08-15.68-15.89-.12-33.36-.14-66.72-.08-100.08,.02-8.7,6.8-15.65,15.17-16.08,8.91-.45,16.02,5.35,17.3,14.19,.23,1.6,.25,3.24,.26,4.86,.03,17.37,.04,34.73,.05,52.1,0,1.33,0,2.65,0,3.98,.4,.18,.8,.37,1.2,.55Z"/>
  </g>
</svg>